<mxfile host="app.diagrams.net" modified="2023-09-01T02:57:13.287Z" agent="Mozilla/5.0 (Macintosh; Intel Mac OS X 10_15_7) AppleWebKit/537.36 (KHTML, like Gecko) Chrome/116.0.0.0 Safari/537.36" etag="juxptaV8gUzyA7QxzXUI" version="21.6.9" type="device">
  <diagram name="Page-1" id="QGtCVKumcEi17zyCFpHR">
    <mxGraphModel dx="2301" dy="922" grid="1" gridSize="10" guides="1" tooltips="1" connect="1" arrows="1" fold="1" page="1" pageScale="1" pageWidth="850" pageHeight="1100" math="0" shadow="0">
      <root>
        <mxCell id="0" />
        <mxCell id="1" parent="0" />
        <mxCell id="iMWLYqXpcg_YgM4Je9na-6" value="" style="shape=image;verticalLabelPosition=bottom;labelBackgroundColor=default;verticalAlign=top;aspect=fixed;imageAspect=0;image=data:image/jpeg,/9j/4AAQSkZJRgABAQAAAQABAAD/2wCEAAkGBxASDxUQEhAVEBAVERAYEBAXFxUYFhUXGBIXFhYVFRkYHSggGRonGxUTIjEhJSktLi4uFx8zODMsNygtLysBCgoKDg0OGxAQGy0lICEtKy0vLS0tLS4rLSstLS0tLS0tKy0tLS0tLS0tLS0tLS0tLS0tLS0tLS0tLS0tLS0tLf/AABEIAOEA4QMBIgACEQEDEQH/xAAcAAEAAgMBAQEAAAAAAAAAAAAABgcBBAUDAgj/xABDEAACAQICBgYHBAgFBQAAAAAAAQIDBAYRBRIhMUFRByIyYYGhE0JSYnGRwSNysdEUM2OCkqLC8ESy0uHxJENTo7P/xAAaAQEAAgMBAAAAAAAAAAAAAAAAAwQBAgUG/8QAKhEAAgIBAwMEAgIDAQAAAAAAAAECAxEEEiEFMVETIkGxMpFCgWFxoSP/2gAMAwEAAhEDEQA/ALxAAAAAAAAAAMNgGTDZGtM41tKGcVL01RepDbt75bkQnSmPburmoatCO3srOWX3n9EaOyKKl2tpq4by/CLWr3EILOU4xXNtL8TiXmM7CnsddTfKCc/OOzzKduK86ktacnOT3yk235nwRu5/Bz59Vl/GP7LPq9JNquzRrS78oL+o8JdJlLhaz8ZRK3Br6siu+pXv5/4WOukynxtZ/wAcfyPWn0l2/rW9VfBwf4tFZgx6sguo3+f+Fu2mPLCexzlS+/FpfNZo7tppKhVWdOrCovdkn+BQoW/PjwfE2Vz+SaHVZr8kmfoXMyUtovF97Q2Kr6SPsVM5L555+ZMtDdIdCfVuIuhL2lnKD+W1f3tJI2RZfq6hTPhvD/yTcHjbXEKkVOElODXVlFpp/Bo9iQvAAAAAAAAAAAAAAAAAAAGGyE4wxqqLlQt8pVk8p1N8YbNy5y8l5GHJLuRW3Qqjukzu6fxJQtINzlrVMurRTWu/Dgu9lY6fxbc3Ty1nRpcKUG1mvfe+X4dxxK9aU5Oc5Oc5POUm8233nwVpWORwdRr7LeFwjBkAjKAAAAAAAAAAAAAAABvaK0xcW0tajUcdu2O+MvjHc/xLJw3jijcNU6qVCs+ym+pP4Se59z8yqDBvGbiWtPq7KXxyvB+hkzJVWFMbToNUrhupQySjP1qfx9qPmvItC2rxnFTjJSjJJxknmmuaLMZKR6DT6mF0cx/R6gA2LAAAAAAAAAAMNmSEY+xS6K/RqMsqzS9JNZdSL4L3n5LwMSeFkiutjVBykaOOMYdq2t5c1VqpvNPPJwg+e/NlfAFSUtzyea1F8rpbpAAGpXAAAAAAAAAAAAAAAAAAAAABIsI4onaT1ZZzt5PrQ4xb9aH1XEjoMptdiSu2Vct0e5f9pcwqQjUhJShJJxktzR7lR4HxM7aoqNRt285Lbn+rk32tvq8/mW1GSe7ai3CW5HpdNqY3wyu/yfQANiyAAAADEmAcbFWm42lvKo2nUeaox5yy2eC3spavWlObnOTlOTblJ723vZ3Maaad1dSyf2VNyhSXB5PrS8Wl4JHAKtktzPOa/UerZhdkAARlAAAAAAAAAAAAAAAAAAAAGadNykoxTlJtKMUs229ySQMiMW2klm28klvb5IlGj8BXtRZyUaK995y+Uc/Ml2C8JRt0q1VKVxJLZsyp9y7+bJckTwq+WdjTdNTjut/RVN50eXkFnCVOr7qbi/DW2eZFry0qUpunUg6c1vi9/wDx3l/5HCxXh6F3RayUayWdOpltT9l+6zMql8G+o6ZDbmvv4KWLL6N8Qa8f0Oo+tBZ0XzgvV+Kz+XwK2nFptNZNNprk08mj1s7qdKpGrB6s4STi/h9OBFGW1nM017psUv2foAGjobSULihCtDdKKzXsvjF96eZvFs9RGSksoAAGQRnH2lvQWclF5VKvUhz29t/w57e9ElbKk6SNIelvPRp5xpQUe7WfWl/SvA0seIlTW3enS2u74IoZAKh5gAAAAAAAAAAAAAAAAAAAH1TpuUlGKcpNpRit7b3JAyuTFODk1GKcpNpRitrbe5JcS1sF4RVsvTVkpXD3cVTT4LnLm/D4sFYSVslWqpSuGt29U1yXfzZLyxXXjlnd0Oh2e+a5+ggATHUBhmTW0jewo0pVaktWEVm3/fEGG0lllL4qpqN9cRW70sn8+s/Ns5R7X1y6tWdV75znJ92bbyPEpPueSsac215J10X6X1akrSW6ec6fdJLrL5JPwZZaKD0ZeyoVoVo9qE08ua4rxWa8S97SvGpCM4vOMoxlF801mixVLKwdzpl26vY/j6PYAEp0jxuqyhCU3ujGTfgsygq9eVScqktspylKT7283+JcWPLr0ej6zTyckoL99qL8mymiC584OJ1WfujH+wACA5AAAAAAAAAAAAAAAAAPqnByajFOUm0oxW1tvckDOMmKcHJqMU5SbSjFLNtvgkWtgrCStoqtWSlcSSyW9U1luXvbdr/tsFYRjbRVaslK5aeXFU0+Efe5v+3LkixXXjlnd0Oh2e+ffx4CRkAmOoADwu7qFOEqk5KEIpuUnuSAbwZu7mFOEqk5KMIpuUnuSRUOLcUTvJ6sc4W8ezB7HJ+1L6LgYxfiad5U1I9W3hJ+jjtTl78/ouGZHitZZnhHA1utdnsh2+wACI5gLf6PL30lhBcabdN+G2P8riVAT7onuOtXp8GqUku/OUW/lqktT9xf6dPbcl5LIB85gsnoyFdK1Vq1pR9qus/CnJ/kVgWR0sy+yoL9pP8Ay/7lbla38jznUXm9/wBAAERQMxi28ks29yW99yJXofAV1WipzcbeL3KSbn4xW7xfgdvo4w9FQV5UjnOTfoM/Vjucsubefh8SfZE8KsrLOxpOnqUd9nz8FZ3PRrWUc4XEJv2XFxz8c3+BENI6OrUJ+jq03CXDPc++L3NF+HM07oaldUnTqR74S4xeW9f3tNpVLHBNf02DWa+GUYDoac0RVtazpVF3wmuzOPNfVcDnldrBw5wcHtYABg1ABmEHJqMU5SbSjFbW29yS4mTPczTpuTUYpyk3lGK2tvkkWrgrCUbeKrVUpXEktnCn3Lv5sYLwirZemrJSuGtnFU01uXOXN+HxlyRPXXjlnd0Oh2e+ff6CRkAmOoADwvLqFOEqk5asIpuUuSQMN45Zm6uIU4Oc5KMIrOUm8kkVDi3FE7uerHOFuuzDPt7e1PyyXAYuxRO7nqR6ttGWcI5bZNLtS88lwI6V7LM8I4Wt1vqeyHb7AAITlgAAAlnRlW1b/V4To1F8nGS/BkTO/gGeWkqHe6q/9M/yNofkixpXi6L/AMouYGAXT1WSBdLK+zoP36n+VFcFmdK8P+noy/bNfOnL8isypb+R5zqK/wDd/wBAwzIIygXxoSKVtRS3KjSy/gRvEW6P9MKvaRpt/aUcoSXNZdWXwy2fFMlJdi8rJ62manWmvAABklObp3Q1K6oulUWzfGS7UZcJIpvTmh6trVdKouL1J8Jxz3ry2cC9jmad0NSuqTp1Fz1J+tB+1EjnDcUtZpFcsr8ijAdDTmh6trWdKou+E12Zrmvy4GhTg5NRinKTaUYra2+SRWxh4POyhKMtrXJmnTcmoxTlJtKMVvbe5ItXBWElbJVqqzuJLdvVNPgve3ZsYKwkreKrVUpXDSy/ZrLsrv5slyRPXXjlnb0Oh2e+ff6CRkAmOoADxu7iNODnOSjGKblJ7kkDDeDF5dQpQdSpJQhFZyk3kkVDi7E87yerHOFvBvUjn23wnNfguBnF2J53c9WGcbaLWrB75NetL6LgR0r2WZ4RwtbrfU9kO32AAQnLAAAAAAB3sCLPSVD71T/4zOCSbo4pa2kIv2KdWXko/wBRtD8kT6ZZuj/tFvAyC6eqIv0jW2vo+bW10505+Clk/KTKiL60raqrQqUms1OnOPzi0UJk+O/iVrlzk4fVYYmpeUZABCco2tF6QqW9WNalLKcfk1xUlxRcWGMQUrulrRajVSXpaXGL+qfMpM2tGaQq29VVaUnGS38pLPNxkuKeRJCe0u6TWSpeH2L7zMnGw1p+neUtePVmtlSk2m4v6rkzsllPJ6OElJZXYAAybHN05oaldUnSqrZnnGS7UXwaZxcI4Ohat1ajVSvnJKS7MY55LVT4tb335fGWAxtWckUqYSmptcowkZAMkoAPG5uYU4Oc5KMIrOUm8kkDDeDF5dQp05VJyUIRTcpPckVFi/E07ypqR6tvGT1I7U5cNaf0XDMxi3FE7yerHWhbrswz7TT7csvDJcCPFayzPCOFrdb6j2Q7fYABEcsAAAAAAAAAE56KaOdetP2acIr96Tf9BBi1ejGx1LN1Xvq1JP8Adj1V5qT8SSpZkXunw3Xp+CXgyC0ejwGUvjfR3oL6ol2Z/aR/ebz/AJlIukhHSdorXt43C7VJ5S74SaXk8n8yOyOUUuoVb6W13XJWAAKp5sAAA2tF6QqW9WNak8px+TXFNcUXFhnEFK7pa0dlSOr6Wnxi2uHNb8mUmbWjNIVberGrSlqyi18JLjGS4pkkJ7S7o9W6Xh9i/AcTDOIaV3S1o9Wov1lLPNxfPvTy2P6nazLKeT0cJqa3R7GQAZNgAeF3dQpwdSclCEVnKTeSQMN4WWLy6hSpyqTkowim5SfBIqLF2J53c9SPVtoyzhHc5NetPzyXAYuxRO8nqxThbxb1I57Z7dk5/RcCOlayzPCOFrdb6nsh2+wACI5YAAAAAAAAAAAB9UqUpSUIrOUmlFc23ki99DWao29OivUpxjnzaW1/PMrHo50W6t2qrX2dFNt8HJrKK82/AtqJYpjxk7vS6sRc38mQATHVB43VCNSEoTSlCUWpRfFNZNHsAGslD6c0bK2uJ0JLsy6r5wfZfy88zRLX6QtAO4oqtBZ1qSk9X24b5L4rLNePMqcqTjtZ5fV6f0bMfD7GQAaFUAAA2tGaRq29VVaUtWa8U1szi1xTyXyLiwziCleUtePVnHJVIPfF5ea5MpM2tGaQqW9VVaUtWcfk1xUlxRJCe0u6TVul4f4l+Ag2iOkWhJJXEJUp8ZRTlB/LavM3bzpAsYxzhKdWXCKi15yySLG+Pk7i1dLWdyJNdXEacHOclGMU3KT3JIqHF+J53c9WGcLaLWrB7HJ+1L6I8cSYnrXjyklTpJtxprPwcn6zOGQWWZ4RydZrvU9kO32AARHMAAAAAAAAAAAAABMejvQDq1v0mpH7Km/s890qmfmo7fHLkbRWXglpqds1BE4wdob9FtYwf6yXWqv3nw8EkvA7phIyW0scHqq4KEVFfAABk3AAAMNFVY/w16Co7mkl6GcuvFL9XJ8fuvyfxRax5XFCM4OE4qUZJqUXuafBmso7kV9Tp43Q2v8Ao/PwJFi/DE7SetHOVvJ9SXGL9iX0fEjpUaaeDzNlcq5bZdwADBGAAAAAAAAAAAAAAAAAAAAAADc0Toyrc1VRpLOT2tvYorjKT5GTaMXJ4Xc98PaFqXddUo5qOx1amWyEefx5IurR9lCjSjSprVhFZRX583nm/E08PaDpWlH0dNbXk6k3vlLLe+7uOqWoQ2o9Ho9KqY892AAbl0AAAAAAAAA8bq2hUhKE4qcJJqUWtjRVOLcH1LZurSTqW+b4Nyp/e5x975luHzKOayNZQUitqdNC+OH38n57BZWJsAxnnUtcqc+NF7IS74v1X3bvgV1d2tSlN06kHCae2L3/AO670VpQcTz9+mspfuXHk8gAaFYAAAAAAAAAAAAAAAAExw3gSrVcalx9lR3+j/7kl3+yvM2UW+xNVRO14gjg6B0HWu6mpTj1U16So+zBd/N9xb2H9B0rSl6Oms3vnUeWtJ833dxuWFjTo01SpQUIRWyK/HvfebJZhBRO/pdHGhZ7swkZANy6AAAAAAAAAAAAAAADR0pomhcQ1K1NTXB+tHvi96ZvAGJRUlhlZ6b6O6ketbT9Iv8AxzaUl8JbE/HIh1/o+tQlq1qcqcuGa2P4Pc/Av08bi2hOLjOEZxe+Mkmn4MilUn2Odd0yuXMOPo/P4Lf0hgaxqLZTdF86by/lecfIj1z0aSzzp3Sa4KUNvzUvoRuqRzp9Ouj2WSAgllfo9vo9n0VRd0mn/MjSngrSK/w2fwnS/wBRpsl4IHpbl/F/o4AO9HBukX/hX/HS/wBRsUcBaQlvhTh96a/pzGyXgwtNc/4v9EZBOaHRrWfbuIR56sZS/Fo7mjujy0htqSnXfJvVj8o7fm2bKqTJ4dPvk+VgqylSlKSjGLlJ7opNt+CJRojAd3VadVK3p7M28nNruiuPxLPsNFUKKypUoU+erFJv4vezcSJI0r5L9XS4rmbycPQWFbW12whr1ONWeTl4cI+B3EjIJUkjpQhGCxFYAAMm4AAAAAAAAAAAAAAAAAAAAAAAAPlgGPkyjJgA2NWBIAGGDKAMG5kAAwAAAAAAAAAAAAAAAf/Z;" parent="1" vertex="1">
          <mxGeometry x="260" y="850.01" width="40" height="40" as="geometry" />
        </mxCell>
        <mxCell id="avbdHqin9oMnhoK1nbsH-1" value="" style="rounded=1;whiteSpace=wrap;html=1;fillColor=none;strokeColor=#455964;strokeWidth=3;dashed=1;" parent="1" vertex="1">
          <mxGeometry x="480" y="600.01" width="960" height="640" as="geometry" />
        </mxCell>
        <mxCell id="avbdHqin9oMnhoK1nbsH-2" style="rounded=0;orthogonalLoop=1;jettySize=auto;html=1;exitX=1;exitY=0.5;exitDx=0;exitDy=0;entryX=0;entryY=0.5;entryDx=0;entryDy=0;strokeColor=#455964;strokeWidth=3;" parent="1" source="avbdHqin9oMnhoK1nbsH-50" edge="1">
          <mxGeometry relative="1" as="geometry">
            <mxPoint x="360" y="940.01" as="sourcePoint" />
            <mxPoint x="519.9999999999995" y="920.01" as="targetPoint" />
          </mxGeometry>
        </mxCell>
        <mxCell id="avbdHqin9oMnhoK1nbsH-4" style="edgeStyle=orthogonalEdgeStyle;rounded=0;orthogonalLoop=1;jettySize=auto;html=1;entryX=0.5;entryY=1;entryDx=0;entryDy=0;curved=1;strokeWidth=3;strokeColor=#455964;" parent="1" source="avbdHqin9oMnhoK1nbsH-43" edge="1">
          <mxGeometry relative="1" as="geometry">
            <Array as="points">
              <mxPoint x="-160" y="820" />
              <mxPoint x="-280" y="820" />
              <mxPoint x="-280" y="1020" />
              <mxPoint x="-160" y="1020" />
            </Array>
            <mxPoint x="-160" y="880.0100000000001" as="sourcePoint" />
            <mxPoint x="-160" y="960.0100000000001" as="targetPoint" />
          </mxGeometry>
        </mxCell>
        <mxCell id="avbdHqin9oMnhoK1nbsH-5" value="" style="group" parent="1" connectable="0" vertex="1">
          <mxGeometry x="760" y="1020.02" width="80" height="80" as="geometry" />
        </mxCell>
        <mxCell id="avbdHqin9oMnhoK1nbsH-6" value="" style="ellipse;whiteSpace=wrap;html=1;aspect=fixed;strokeColor=#455964;strokeWidth=3;fillColor=none;" parent="avbdHqin9oMnhoK1nbsH-5" vertex="1">
          <mxGeometry width="80" height="80" as="geometry" />
        </mxCell>
        <mxCell id="avbdHqin9oMnhoK1nbsH-7" value="" style="shape=image;verticalLabelPosition=bottom;labelBackgroundColor=default;verticalAlign=top;aspect=fixed;imageAspect=0;image=https://www.datocms-assets.com/58478/1638283616-packer.svg?auto=format&amp;fit=max&amp;w=1200;" parent="avbdHqin9oMnhoK1nbsH-5" vertex="1">
          <mxGeometry width="80" height="80" as="geometry" />
        </mxCell>
        <mxCell id="avbdHqin9oMnhoK1nbsH-8" style="edgeStyle=orthogonalEdgeStyle;rounded=0;orthogonalLoop=1;jettySize=auto;html=1;exitX=0;exitY=0.75;exitDx=0;exitDy=0;entryX=1;entryY=0.75;entryDx=0;entryDy=0;strokeWidth=3;curved=1;strokeColor=#455964;" parent="avbdHqin9oMnhoK1nbsH-5" source="avbdHqin9oMnhoK1nbsH-7" target="avbdHqin9oMnhoK1nbsH-7" edge="1">
          <mxGeometry relative="1" as="geometry">
            <Array as="points">
              <mxPoint x="-40" y="60" />
              <mxPoint x="-40" y="120" />
              <mxPoint x="120" y="120" />
              <mxPoint x="120" y="60" />
            </Array>
          </mxGeometry>
        </mxCell>
        <mxCell id="avbdHqin9oMnhoK1nbsH-9" value="" style="group" parent="1" connectable="0" vertex="1">
          <mxGeometry x="1000" y="1020.02" width="80" height="80" as="geometry" />
        </mxCell>
        <mxCell id="avbdHqin9oMnhoK1nbsH-10" value="" style="ellipse;whiteSpace=wrap;html=1;aspect=fixed;strokeWidth=3;fillColor=none;strokeColor=#455964;" parent="avbdHqin9oMnhoK1nbsH-9" vertex="1">
          <mxGeometry width="80" height="80" as="geometry" />
        </mxCell>
        <mxCell id="avbdHqin9oMnhoK1nbsH-11" value="" style="shape=image;verticalLabelPosition=bottom;labelBackgroundColor=default;verticalAlign=top;aspect=fixed;imageAspect=0;image=https://www.msp360.com/resources/wp-content/uploads/2017/10/Amazon-EBS-Snapshot.png;" parent="avbdHqin9oMnhoK1nbsH-9" vertex="1">
          <mxGeometry x="5" y="5" width="70" height="70" as="geometry" />
        </mxCell>
        <mxCell id="avbdHqin9oMnhoK1nbsH-12" value="" style="group" parent="1" connectable="0" vertex="1">
          <mxGeometry x="1240" y="1020.02" width="80" height="80" as="geometry" />
        </mxCell>
        <mxCell id="avbdHqin9oMnhoK1nbsH-13" value="" style="ellipse;whiteSpace=wrap;html=1;aspect=fixed;strokeColor=#455964;strokeWidth=3;fillColor=none;" parent="avbdHqin9oMnhoK1nbsH-12" vertex="1">
          <mxGeometry width="80" height="80" as="geometry" />
        </mxCell>
        <mxCell id="avbdHqin9oMnhoK1nbsH-14" value="" style="shape=image;verticalLabelPosition=bottom;labelBackgroundColor=default;verticalAlign=top;aspect=fixed;imageAspect=0;image=https://upload.wikimedia.org/wikipedia/commons/thumb/6/6b/AWS_Simple_Icons_Compute_Amazon_EC2_AMI.svg/1200px-AWS_Simple_Icons_Compute_Amazon_EC2_AMI.svg.png;" parent="avbdHqin9oMnhoK1nbsH-12" vertex="1">
          <mxGeometry x="12.5" y="12.5" width="55" height="55" as="geometry" />
        </mxCell>
        <mxCell id="avbdHqin9oMnhoK1nbsH-15" value="" style="group" parent="1" connectable="0" vertex="1">
          <mxGeometry x="1240" y="740.02" width="80" height="80" as="geometry" />
        </mxCell>
        <mxCell id="avbdHqin9oMnhoK1nbsH-16" value="" style="ellipse;whiteSpace=wrap;html=1;aspect=fixed;strokeColor=#455964;strokeWidth=3;fillColor=none;" parent="avbdHqin9oMnhoK1nbsH-15" vertex="1">
          <mxGeometry width="80" height="80" as="geometry" />
        </mxCell>
        <mxCell id="avbdHqin9oMnhoK1nbsH-17" value="" style="shape=image;verticalLabelPosition=bottom;labelBackgroundColor=default;verticalAlign=top;aspect=fixed;imageAspect=0;image=https://upload.wikimedia.org/wikipedia/commons/thumb/b/b9/AWS_Simple_Icons_Compute_Amazon_EC2_Instances.svg/1024px-AWS_Simple_Icons_Compute_Amazon_EC2_Instances.svg.png;" parent="avbdHqin9oMnhoK1nbsH-15" vertex="1">
          <mxGeometry x="9" y="9" width="62" height="62" as="geometry" />
        </mxCell>
        <mxCell id="avbdHqin9oMnhoK1nbsH-18" style="edgeStyle=orthogonalEdgeStyle;rounded=0;orthogonalLoop=1;jettySize=auto;html=1;exitX=1;exitY=0.5;exitDx=0;exitDy=0;entryX=0;entryY=0.5;entryDx=0;entryDy=0;strokeWidth=3;strokeColor=#F79A19;" parent="1" source="avbdHqin9oMnhoK1nbsH-6" target="avbdHqin9oMnhoK1nbsH-10" edge="1">
          <mxGeometry relative="1" as="geometry" />
        </mxCell>
        <mxCell id="avbdHqin9oMnhoK1nbsH-19" style="edgeStyle=orthogonalEdgeStyle;rounded=0;orthogonalLoop=1;jettySize=auto;html=1;exitX=1;exitY=0.5;exitDx=0;exitDy=0;entryX=0;entryY=0.5;entryDx=0;entryDy=0;strokeWidth=3;strokeColor=#F79A19;" parent="1" edge="1">
          <mxGeometry relative="1" as="geometry">
            <mxPoint x="1080" y="1059.54" as="sourcePoint" />
            <mxPoint x="1240" y="1059.54" as="targetPoint" />
          </mxGeometry>
        </mxCell>
        <mxCell id="avbdHqin9oMnhoK1nbsH-20" value="&lt;b&gt;&lt;font color=&quot;#f79a19&quot; style=&quot;font-size: 20px;&quot;&gt;Create&lt;/font&gt;&lt;/b&gt;" style="text;html=1;strokeColor=none;fillColor=none;align=center;verticalAlign=middle;whiteSpace=wrap;rounded=0;fontFamily=Ubuntu;" parent="1" vertex="1">
          <mxGeometry x="890" y="1020.02" width="60" height="30" as="geometry" />
        </mxCell>
        <mxCell id="avbdHqin9oMnhoK1nbsH-21" value="&lt;b&gt;&lt;font color=&quot;#f79a19&quot; style=&quot;font-size: 20px;&quot;&gt;Register&lt;/font&gt;&lt;/b&gt;" style="text;html=1;strokeColor=none;fillColor=none;align=center;verticalAlign=middle;whiteSpace=wrap;rounded=0;fontFamily=Ubuntu;" parent="1" vertex="1">
          <mxGeometry x="1130" y="1020.02" width="60" height="30" as="geometry" />
        </mxCell>
        <mxCell id="avbdHqin9oMnhoK1nbsH-22" style="edgeStyle=orthogonalEdgeStyle;rounded=0;orthogonalLoop=1;jettySize=auto;html=1;strokeWidth=3;strokeColor=#455964;exitX=0.5;exitY=1;exitDx=0;exitDy=0;" parent="1" source="avbdHqin9oMnhoK1nbsH-13" edge="1">
          <mxGeometry relative="1" as="geometry">
            <mxPoint x="1200" y="1230.02" as="sourcePoint" />
            <mxPoint x="1280" y="1180.02" as="targetPoint" />
            <Array as="points">
              <mxPoint x="1280" y="1120.02" />
              <mxPoint x="1280" y="1120.02" />
            </Array>
          </mxGeometry>
        </mxCell>
        <mxCell id="avbdHqin9oMnhoK1nbsH-23" value="&lt;b&gt;&lt;font color=&quot;#f79a19&quot; style=&quot;font-size: 20px;&quot;&gt;Deregister&lt;/font&gt;&lt;/b&gt;" style="text;html=1;strokeColor=none;fillColor=none;align=center;verticalAlign=middle;whiteSpace=wrap;rounded=0;fontFamily=Ubuntu;" parent="1" vertex="1">
          <mxGeometry x="1250" y="1190.02" width="60" height="30" as="geometry" />
        </mxCell>
        <mxCell id="avbdHqin9oMnhoK1nbsH-24" value="&lt;span style=&quot;font-size: 20px;&quot;&gt;&lt;b style=&quot;&quot;&gt;&lt;font color=&quot;#455964&quot;&gt;PR/&lt;/font&gt;&lt;font color=&quot;#f79a19&quot;&gt;master&lt;/font&gt;&lt;font color=&quot;#455964&quot;&gt; commit&lt;/font&gt;&lt;br&gt;&lt;/b&gt;&lt;/span&gt;" style="text;html=1;strokeColor=none;fillColor=none;align=center;verticalAlign=middle;whiteSpace=wrap;rounded=0;fontFamily=Ubuntu;" parent="1" vertex="1">
          <mxGeometry x="-370" y="905.0100000000001" width="60" height="30" as="geometry" />
        </mxCell>
        <mxCell id="avbdHqin9oMnhoK1nbsH-25" value="" style="group" parent="1" connectable="0" vertex="1">
          <mxGeometry x="760" y="740.02" width="80" height="80" as="geometry" />
        </mxCell>
        <mxCell id="avbdHqin9oMnhoK1nbsH-26" value="" style="group" parent="avbdHqin9oMnhoK1nbsH-25" connectable="0" vertex="1">
          <mxGeometry width="80" height="80" as="geometry" />
        </mxCell>
        <mxCell id="avbdHqin9oMnhoK1nbsH-27" value="" style="ellipse;whiteSpace=wrap;html=1;aspect=fixed;strokeColor=#455964;strokeWidth=3;fillColor=none;" parent="avbdHqin9oMnhoK1nbsH-26" vertex="1">
          <mxGeometry width="80" height="80" as="geometry" />
        </mxCell>
        <mxCell id="avbdHqin9oMnhoK1nbsH-28" value="" style="shape=image;verticalLabelPosition=bottom;labelBackgroundColor=default;verticalAlign=top;aspect=fixed;imageAspect=0;image=https://dustindortch.files.wordpress.com/2020/08/terraform-logo.png?w=640;" parent="avbdHqin9oMnhoK1nbsH-26" vertex="1">
          <mxGeometry x="5" y="5" width="75" height="75" as="geometry" />
        </mxCell>
        <mxCell id="avbdHqin9oMnhoK1nbsH-29" style="edgeStyle=orthogonalEdgeStyle;rounded=0;orthogonalLoop=1;jettySize=auto;html=1;exitX=0;exitY=0.25;exitDx=0;exitDy=0;entryX=1;entryY=0.25;entryDx=0;entryDy=0;curved=1;strokeWidth=3;strokeColor=#455964;" parent="avbdHqin9oMnhoK1nbsH-26" source="avbdHqin9oMnhoK1nbsH-28" target="avbdHqin9oMnhoK1nbsH-28" edge="1">
          <mxGeometry relative="1" as="geometry">
            <Array as="points">
              <mxPoint x="-40" y="24" />
              <mxPoint x="-40" y="-40" />
              <mxPoint x="120" y="-40" />
              <mxPoint x="120" y="24" />
            </Array>
          </mxGeometry>
        </mxCell>
        <mxCell id="avbdHqin9oMnhoK1nbsH-30" style="edgeStyle=orthogonalEdgeStyle;rounded=0;orthogonalLoop=1;jettySize=auto;html=1;entryX=0;entryY=0.5;entryDx=0;entryDy=0;strokeColor=#F79A19;strokeWidth=3;exitX=1;exitY=0.5;exitDx=0;exitDy=0;" parent="1" source="avbdHqin9oMnhoK1nbsH-27" target="avbdHqin9oMnhoK1nbsH-16" edge="1">
          <mxGeometry relative="1" as="geometry">
            <mxPoint x="890" y="840.02" as="sourcePoint" />
          </mxGeometry>
        </mxCell>
        <mxCell id="avbdHqin9oMnhoK1nbsH-31" value="&lt;b&gt;&lt;font style=&quot;font-size: 20px;&quot;&gt;&lt;font color=&quot;#f79a19&quot;&gt;Launch&lt;/font&gt;&lt;br&gt;&lt;/font&gt;&lt;/b&gt;" style="text;html=1;strokeColor=none;fillColor=none;align=center;verticalAlign=middle;whiteSpace=wrap;rounded=0;fontFamily=Ubuntu;" parent="1" vertex="1">
          <mxGeometry x="1010" y="740.02" width="60" height="30" as="geometry" />
        </mxCell>
        <mxCell id="avbdHqin9oMnhoK1nbsH-32" style="edgeStyle=orthogonalEdgeStyle;rounded=0;orthogonalLoop=1;jettySize=auto;html=1;entryX=0.5;entryY=1;entryDx=0;entryDy=0;curved=1;strokeColor=#F79A19;strokeWidth=3;" parent="1" source="avbdHqin9oMnhoK1nbsH-13" target="avbdHqin9oMnhoK1nbsH-27" edge="1">
          <mxGeometry relative="1" as="geometry">
            <Array as="points">
              <mxPoint x="1280" y="900.02" />
              <mxPoint x="800" y="900.02" />
            </Array>
          </mxGeometry>
        </mxCell>
        <mxCell id="avbdHqin9oMnhoK1nbsH-33" value="&lt;b&gt;&lt;font style=&quot;font-size: 20px;&quot;&gt;&lt;font color=&quot;#f79a19&quot;&gt;Fetch&lt;/font&gt;&lt;br&gt;&lt;/font&gt;&lt;/b&gt;" style="text;html=1;strokeColor=none;fillColor=none;align=center;verticalAlign=middle;whiteSpace=wrap;rounded=0;fontFamily=Ubuntu;" parent="1" vertex="1">
          <mxGeometry x="1010" y="860.02" width="60" height="30" as="geometry" />
        </mxCell>
        <mxCell id="avbdHqin9oMnhoK1nbsH-34" value="&lt;b&gt;&lt;font color=&quot;#455964&quot; style=&quot;font-size: 20px;&quot;&gt;Validate&lt;/font&gt;&lt;/b&gt;" style="text;html=1;strokeColor=none;fillColor=none;align=center;verticalAlign=middle;whiteSpace=wrap;rounded=0;fontFamily=Ubuntu;" parent="1" vertex="1">
          <mxGeometry x="770" y="1150.02" width="60" height="30" as="geometry" />
        </mxCell>
        <mxCell id="avbdHqin9oMnhoK1nbsH-35" value="&lt;b&gt;&lt;font color=&quot;#455964&quot; style=&quot;font-size: 20px;&quot;&gt;Validate&lt;/font&gt;&lt;/b&gt;" style="text;html=1;strokeColor=none;fillColor=none;align=center;verticalAlign=middle;whiteSpace=wrap;rounded=0;fontFamily=Ubuntu;" parent="1" vertex="1">
          <mxGeometry x="770" y="660.02" width="60" height="30" as="geometry" />
        </mxCell>
        <mxCell id="avbdHqin9oMnhoK1nbsH-37" value="&lt;b&gt;&lt;font style=&quot;font-size: 20px;&quot;&gt;&lt;font color=&quot;#f79a19&quot;&gt;EC2 Instances&lt;/font&gt;&lt;br&gt;&lt;/font&gt;&lt;/b&gt;" style="text;html=1;strokeColor=none;fillColor=none;align=center;verticalAlign=middle;whiteSpace=wrap;rounded=0;fontFamily=Ubuntu;" parent="1" vertex="1">
          <mxGeometry x="1350" y="765.02" width="60" height="30" as="geometry" />
        </mxCell>
        <mxCell id="avbdHqin9oMnhoK1nbsH-38" value="&lt;b&gt;&lt;font style=&quot;font-size: 20px;&quot;&gt;&lt;font color=&quot;#f79a19&quot;&gt;AMI Image&lt;/font&gt;&lt;br&gt;&lt;/font&gt;&lt;/b&gt;" style="text;html=1;strokeColor=none;fillColor=none;align=center;verticalAlign=middle;whiteSpace=wrap;rounded=0;fontFamily=Ubuntu;" parent="1" vertex="1">
          <mxGeometry x="1340" y="1045.02" width="60" height="30" as="geometry" />
        </mxCell>
        <mxCell id="avbdHqin9oMnhoK1nbsH-41" style="edgeStyle=orthogonalEdgeStyle;rounded=0;orthogonalLoop=1;jettySize=auto;html=1;exitX=1;exitY=0.5;exitDx=0;exitDy=0;entryX=0;entryY=0.5;entryDx=0;entryDy=0;strokeColor=#455964;strokeWidth=3;curved=1;" parent="1" source="avbdHqin9oMnhoK1nbsH-43" target="avbdHqin9oMnhoK1nbsH-47" edge="1">
          <mxGeometry relative="1" as="geometry">
            <Array as="points">
              <mxPoint x="-30" y="920" />
              <mxPoint x="-30" y="920" />
            </Array>
          </mxGeometry>
        </mxCell>
        <mxCell id="avbdHqin9oMnhoK1nbsH-42" style="edgeStyle=orthogonalEdgeStyle;rounded=0;orthogonalLoop=1;jettySize=auto;html=1;exitX=1;exitY=0.5;exitDx=0;exitDy=0;entryX=0;entryY=0.5;entryDx=0;entryDy=0;curved=1;strokeColor=#455964;strokeWidth=3;" parent="1" source="avbdHqin9oMnhoK1nbsH-43" target="avbdHqin9oMnhoK1nbsH-45" edge="1">
          <mxGeometry relative="1" as="geometry">
            <Array as="points">
              <mxPoint x="-40" y="920" />
              <mxPoint x="-40" y="680" />
            </Array>
          </mxGeometry>
        </mxCell>
        <mxCell id="iMWLYqXpcg_YgM4Je9na-4" style="edgeStyle=orthogonalEdgeStyle;rounded=0;orthogonalLoop=1;jettySize=auto;html=1;exitX=1;exitY=0.5;exitDx=0;exitDy=0;entryX=0;entryY=0.5;entryDx=0;entryDy=0;strokeColor=#455964;strokeWidth=3;curved=1;" parent="1" source="avbdHqin9oMnhoK1nbsH-43" target="avbdHqin9oMnhoK1nbsH-48" edge="1">
          <mxGeometry relative="1" as="geometry">
            <Array as="points">
              <mxPoint x="-40" y="920" />
              <mxPoint x="-40" y="1160" />
            </Array>
          </mxGeometry>
        </mxCell>
        <mxCell id="5RZObBpU1f4yu_yqTgpw-12" style="edgeStyle=orthogonalEdgeStyle;rounded=0;orthogonalLoop=1;jettySize=auto;html=1;exitX=1;exitY=0.5;exitDx=0;exitDy=0;entryX=0.5;entryY=0;entryDx=0;entryDy=0;strokeColor=#455964;strokeWidth=3;curved=1;" parent="1" source="avbdHqin9oMnhoK1nbsH-43" target="5RZObBpU1f4yu_yqTgpw-10" edge="1">
          <mxGeometry relative="1" as="geometry" />
        </mxCell>
        <mxCell id="avbdHqin9oMnhoK1nbsH-43" value="" style="shape=image;html=1;verticalAlign=top;verticalLabelPosition=bottom;labelBackgroundColor=#ffffff;imageAspect=0;aspect=fixed;image=https://cdn4.iconfinder.com/data/icons/social-media-and-logos-11/32/Logo_Github-128.png" parent="1" vertex="1">
          <mxGeometry x="-200" y="880.0100000000001" width="80" height="80" as="geometry" />
        </mxCell>
        <mxCell id="avbdHqin9oMnhoK1nbsH-44" style="edgeStyle=orthogonalEdgeStyle;rounded=0;orthogonalLoop=1;jettySize=auto;html=1;exitX=1;exitY=0.5;exitDx=0;exitDy=0;entryX=0;entryY=0.5;entryDx=0;entryDy=0;strokeColor=#455964;strokeWidth=3;curved=1;" parent="1" source="avbdHqin9oMnhoK1nbsH-45" target="avbdHqin9oMnhoK1nbsH-50" edge="1">
          <mxGeometry relative="1" as="geometry">
            <Array as="points">
              <mxPoint x="190" y="680" />
              <mxPoint x="190" y="920" />
            </Array>
          </mxGeometry>
        </mxCell>
        <mxCell id="avbdHqin9oMnhoK1nbsH-45" value="&lt;font color=&quot;#ffffff&quot; face=&quot;Ubuntu&quot;&gt;&lt;b&gt;YAML Lint Check&lt;/b&gt;&lt;/font&gt;" style="ellipse;whiteSpace=wrap;html=1;aspect=fixed;strokeColor=none;strokeWidth=3;fillColor=#2184F7;" parent="1" vertex="1">
          <mxGeometry x="40" y="640" width="80" height="80" as="geometry" />
        </mxCell>
        <mxCell id="avbdHqin9oMnhoK1nbsH-46" style="edgeStyle=orthogonalEdgeStyle;rounded=0;orthogonalLoop=1;jettySize=auto;html=1;exitX=1;exitY=0.5;exitDx=0;exitDy=0;strokeWidth=3;curved=1;strokeColor=#455964;" parent="1" source="avbdHqin9oMnhoK1nbsH-47" edge="1">
          <mxGeometry relative="1" as="geometry">
            <mxPoint x="280" y="920" as="targetPoint" />
            <Array as="points">
              <mxPoint x="200" y="920" />
              <mxPoint x="200" y="920" />
            </Array>
          </mxGeometry>
        </mxCell>
        <mxCell id="avbdHqin9oMnhoK1nbsH-47" value="&lt;font face=&quot;Ubuntu&quot; color=&quot;#ffffff&quot;&gt;&lt;b&gt;Markdown Lint Check&lt;/b&gt;&lt;/font&gt;" style="ellipse;whiteSpace=wrap;html=1;aspect=fixed;strokeColor=none;strokeWidth=3;fillColor=#2184F7;" parent="1" vertex="1">
          <mxGeometry x="40" y="880.01" width="80" height="80" as="geometry" />
        </mxCell>
        <mxCell id="iMWLYqXpcg_YgM4Je9na-5" style="edgeStyle=orthogonalEdgeStyle;rounded=0;orthogonalLoop=1;jettySize=auto;html=1;exitX=1;exitY=0.5;exitDx=0;exitDy=0;entryX=0;entryY=0.5;entryDx=0;entryDy=0;strokeColor=#455964;strokeWidth=3;curved=1;" parent="1" source="avbdHqin9oMnhoK1nbsH-48" target="avbdHqin9oMnhoK1nbsH-50" edge="1">
          <mxGeometry relative="1" as="geometry">
            <Array as="points">
              <mxPoint x="200" y="1160" />
              <mxPoint x="200" y="920" />
            </Array>
          </mxGeometry>
        </mxCell>
        <mxCell id="avbdHqin9oMnhoK1nbsH-48" value="&lt;font face=&quot;Ubuntu&quot; color=&quot;#ffffff&quot;&gt;&lt;b&gt;Markdown Link Check&lt;/b&gt;&lt;/font&gt;" style="ellipse;whiteSpace=wrap;html=1;aspect=fixed;strokeColor=none;strokeWidth=3;fillColor=#2184F7;" parent="1" vertex="1">
          <mxGeometry x="40" y="1120" width="80" height="80" as="geometry" />
        </mxCell>
        <mxCell id="5RZObBpU1f4yu_yqTgpw-8" style="edgeStyle=orthogonalEdgeStyle;rounded=0;orthogonalLoop=1;jettySize=auto;html=1;exitX=0.5;exitY=1;exitDx=0;exitDy=0;entryX=0;entryY=0.5;entryDx=0;entryDy=0;strokeColor=#455964;curved=1;strokeWidth=3;" parent="1" source="avbdHqin9oMnhoK1nbsH-50" target="5RZObBpU1f4yu_yqTgpw-5" edge="1">
          <mxGeometry relative="1" as="geometry" />
        </mxCell>
        <mxCell id="5RZObBpU1f4yu_yqTgpw-15" style="edgeStyle=orthogonalEdgeStyle;rounded=0;orthogonalLoop=1;jettySize=auto;html=1;exitX=0.5;exitY=0;exitDx=0;exitDy=0;entryX=0;entryY=0.5;entryDx=0;entryDy=0;curved=1;strokeWidth=3;strokeColor=#455964;" parent="1" source="avbdHqin9oMnhoK1nbsH-50" target="5RZObBpU1f4yu_yqTgpw-14" edge="1">
          <mxGeometry relative="1" as="geometry" />
        </mxCell>
        <mxCell id="avbdHqin9oMnhoK1nbsH-50" value="&lt;font color=&quot;#ffffff&quot; face=&quot;Ubuntu&quot;&gt;&lt;b&gt;Tests&lt;/b&gt;&lt;/font&gt;" style="ellipse;whiteSpace=wrap;html=1;aspect=fixed;strokeColor=none;strokeWidth=3;fillColor=#2184F7;" parent="1" vertex="1">
          <mxGeometry x="280" y="880" width="80" height="80" as="geometry" />
        </mxCell>
        <mxCell id="avbdHqin9oMnhoK1nbsH-54" value="" style="shape=image;verticalLabelPosition=bottom;labelBackgroundColor=default;verticalAlign=top;aspect=fixed;imageAspect=0;image=data:image/jpeg,/9j/4AAQSkZJRgABAQAAAQABAAD/2wCEAAkGBxASDxUQEhAVEBAVERAYEBAXFxUYFhUXGBIXFhYVFRkYHSggGRonGxUTIjEhJSktLi4uFx8zODMsNygtLysBCgoKDg0OGxAQGy0lICEtKy0vLS0tLS4rLSstLS0tLS0tKy0tLS0tLS0tLS0tLS0tLS0tLS0tLS0tLS0tLS0tLf/AABEIAOEA4QMBIgACEQEDEQH/xAAcAAEAAgMBAQEAAAAAAAAAAAAABgcBBAUDAgj/xABDEAACAQICBgYHBAgFBQAAAAAAAQIDBAYRBRIhMUFRByIyYYGhE0JSYnGRwSNysdEUM2OCkqLC8ESy0uHxJENTo7P/xAAaAQEAAgMBAAAAAAAAAAAAAAAAAwQBAgUG/8QAKhEAAgIBAwMEAgIDAQAAAAAAAAECAxEEEiEFMVETIkGxMpFCgWFxoSP/2gAMAwEAAhEDEQA/ALxAAAAAAAAAAMNgGTDZGtM41tKGcVL01RepDbt75bkQnSmPburmoatCO3srOWX3n9EaOyKKl2tpq4by/CLWr3EILOU4xXNtL8TiXmM7CnsddTfKCc/OOzzKduK86ktacnOT3yk235nwRu5/Bz59Vl/GP7LPq9JNquzRrS78oL+o8JdJlLhaz8ZRK3Br6siu+pXv5/4WOukynxtZ/wAcfyPWn0l2/rW9VfBwf4tFZgx6sguo3+f+Fu2mPLCexzlS+/FpfNZo7tppKhVWdOrCovdkn+BQoW/PjwfE2Vz+SaHVZr8kmfoXMyUtovF97Q2Kr6SPsVM5L555+ZMtDdIdCfVuIuhL2lnKD+W1f3tJI2RZfq6hTPhvD/yTcHjbXEKkVOElODXVlFpp/Bo9iQvAAAAAAAAAAAAAAAAAAAGGyE4wxqqLlQt8pVk8p1N8YbNy5y8l5GHJLuRW3Qqjukzu6fxJQtINzlrVMurRTWu/Dgu9lY6fxbc3Ty1nRpcKUG1mvfe+X4dxxK9aU5Oc5Oc5POUm8233nwVpWORwdRr7LeFwjBkAjKAAAAAAAAAAAAAAABvaK0xcW0tajUcdu2O+MvjHc/xLJw3jijcNU6qVCs+ym+pP4Se59z8yqDBvGbiWtPq7KXxyvB+hkzJVWFMbToNUrhupQySjP1qfx9qPmvItC2rxnFTjJSjJJxknmmuaLMZKR6DT6mF0cx/R6gA2LAAAAAAAAAAMNmSEY+xS6K/RqMsqzS9JNZdSL4L3n5LwMSeFkiutjVBykaOOMYdq2t5c1VqpvNPPJwg+e/NlfAFSUtzyea1F8rpbpAAGpXAAAAAAAAAAAAAAAAAAAAABIsI4onaT1ZZzt5PrQ4xb9aH1XEjoMptdiSu2Vct0e5f9pcwqQjUhJShJJxktzR7lR4HxM7aoqNRt285Lbn+rk32tvq8/mW1GSe7ai3CW5HpdNqY3wyu/yfQANiyAAAADEmAcbFWm42lvKo2nUeaox5yy2eC3spavWlObnOTlOTblJ723vZ3Maaad1dSyf2VNyhSXB5PrS8Wl4JHAKtktzPOa/UerZhdkAARlAAAAAAAAAAAAAAAAAAAAGadNykoxTlJtKMUs229ySQMiMW2klm28klvb5IlGj8BXtRZyUaK995y+Uc/Ml2C8JRt0q1VKVxJLZsyp9y7+bJckTwq+WdjTdNTjut/RVN50eXkFnCVOr7qbi/DW2eZFry0qUpunUg6c1vi9/wDx3l/5HCxXh6F3RayUayWdOpltT9l+6zMql8G+o6ZDbmvv4KWLL6N8Qa8f0Oo+tBZ0XzgvV+Kz+XwK2nFptNZNNprk08mj1s7qdKpGrB6s4STi/h9OBFGW1nM017psUv2foAGjobSULihCtDdKKzXsvjF96eZvFs9RGSksoAAGQRnH2lvQWclF5VKvUhz29t/w57e9ElbKk6SNIelvPRp5xpQUe7WfWl/SvA0seIlTW3enS2u74IoZAKh5gAAAAAAAAAAAAAAAAAAAH1TpuUlGKcpNpRit7b3JAyuTFODk1GKcpNpRitrbe5JcS1sF4RVsvTVkpXD3cVTT4LnLm/D4sFYSVslWqpSuGt29U1yXfzZLyxXXjlnd0Oh2e+a5+ggATHUBhmTW0jewo0pVaktWEVm3/fEGG0lllL4qpqN9cRW70sn8+s/Ns5R7X1y6tWdV75znJ92bbyPEpPueSsac215J10X6X1akrSW6ec6fdJLrL5JPwZZaKD0ZeyoVoVo9qE08ua4rxWa8S97SvGpCM4vOMoxlF801mixVLKwdzpl26vY/j6PYAEp0jxuqyhCU3ujGTfgsygq9eVScqktspylKT7283+JcWPLr0ej6zTyckoL99qL8mymiC584OJ1WfujH+wACA5AAAAAAAAAAAAAAAAAPqnByajFOUm0oxW1tvckDOMmKcHJqMU5SbSjFLNtvgkWtgrCStoqtWSlcSSyW9U1luXvbdr/tsFYRjbRVaslK5aeXFU0+Efe5v+3LkixXXjlnd0Oh2e+ffx4CRkAmOoADwu7qFOEqk5KEIpuUnuSAbwZu7mFOEqk5KMIpuUnuSRUOLcUTvJ6sc4W8ezB7HJ+1L6LgYxfiad5U1I9W3hJ+jjtTl78/ouGZHitZZnhHA1utdnsh2+wACI5gLf6PL30lhBcabdN+G2P8riVAT7onuOtXp8GqUku/OUW/lqktT9xf6dPbcl5LIB85gsnoyFdK1Vq1pR9qus/CnJ/kVgWR0sy+yoL9pP8Ay/7lbla38jznUXm9/wBAAERQMxi28ks29yW99yJXofAV1WipzcbeL3KSbn4xW7xfgdvo4w9FQV5UjnOTfoM/Vjucsubefh8SfZE8KsrLOxpOnqUd9nz8FZ3PRrWUc4XEJv2XFxz8c3+BENI6OrUJ+jq03CXDPc++L3NF+HM07oaldUnTqR74S4xeW9f3tNpVLHBNf02DWa+GUYDoac0RVtazpVF3wmuzOPNfVcDnldrBw5wcHtYABg1ABmEHJqMU5SbSjFbW29yS4mTPczTpuTUYpyk3lGK2tvkkWrgrCUbeKrVUpXEktnCn3Lv5sYLwirZemrJSuGtnFU01uXOXN+HxlyRPXXjlnd0Oh2e+ff6CRkAmOoADwvLqFOEqk5asIpuUuSQMN45Zm6uIU4Oc5KMIrOUm8kkVDi3FE7uerHOFuuzDPt7e1PyyXAYuxRO7nqR6ttGWcI5bZNLtS88lwI6V7LM8I4Wt1vqeyHb7AAITlgAAAlnRlW1b/V4To1F8nGS/BkTO/gGeWkqHe6q/9M/yNofkixpXi6L/AMouYGAXT1WSBdLK+zoP36n+VFcFmdK8P+noy/bNfOnL8isypb+R5zqK/wDd/wBAwzIIygXxoSKVtRS3KjSy/gRvEW6P9MKvaRpt/aUcoSXNZdWXwy2fFMlJdi8rJ62manWmvAABklObp3Q1K6oulUWzfGS7UZcJIpvTmh6trVdKouL1J8Jxz3ry2cC9jmad0NSuqTp1Fz1J+tB+1EjnDcUtZpFcsr8ijAdDTmh6trWdKou+E12Zrmvy4GhTg5NRinKTaUYra2+SRWxh4POyhKMtrXJmnTcmoxTlJtKMVvbe5ItXBWElbJVqqzuJLdvVNPgve3ZsYKwkreKrVUpXDSy/ZrLsrv5slyRPXXjlnb0Oh2e+ff6CRkAmOoADxu7iNODnOSjGKblJ7kkDDeDF5dQpQdSpJQhFZyk3kkVDi7E87yerHOFvBvUjn23wnNfguBnF2J53c9WGcbaLWrB75NetL6LgR0r2WZ4RwtbrfU9kO32AAQnLAAAAAAB3sCLPSVD71T/4zOCSbo4pa2kIv2KdWXko/wBRtD8kT6ZZuj/tFvAyC6eqIv0jW2vo+bW10505+Clk/KTKiL60raqrQqUms1OnOPzi0UJk+O/iVrlzk4fVYYmpeUZABCco2tF6QqW9WNalLKcfk1xUlxRcWGMQUrulrRajVSXpaXGL+qfMpM2tGaQq29VVaUnGS38pLPNxkuKeRJCe0u6TWSpeH2L7zMnGw1p+neUtePVmtlSk2m4v6rkzsllPJ6OElJZXYAAybHN05oaldUnSqrZnnGS7UXwaZxcI4Ohat1ajVSvnJKS7MY55LVT4tb335fGWAxtWckUqYSmptcowkZAMkoAPG5uYU4Oc5KMIrOUm8kkDDeDF5dQp05VJyUIRTcpPckVFi/E07ypqR6tvGT1I7U5cNaf0XDMxi3FE7yerHWhbrswz7TT7csvDJcCPFayzPCOFrdb6j2Q7fYABEcsAAAAAAAAAE56KaOdetP2acIr96Tf9BBi1ejGx1LN1Xvq1JP8Adj1V5qT8SSpZkXunw3Xp+CXgyC0ejwGUvjfR3oL6ol2Z/aR/ebz/AJlIukhHSdorXt43C7VJ5S74SaXk8n8yOyOUUuoVb6W13XJWAAKp5sAAA2tF6QqW9WNak8px+TXFNcUXFhnEFK7pa0dlSOr6Wnxi2uHNb8mUmbWjNIVberGrSlqyi18JLjGS4pkkJ7S7o9W6Xh9i/AcTDOIaV3S1o9Wov1lLPNxfPvTy2P6nazLKeT0cJqa3R7GQAZNgAeF3dQpwdSclCEVnKTeSQMN4WWLy6hSpyqTkowim5SfBIqLF2J53c9SPVtoyzhHc5NetPzyXAYuxRO8nqxThbxb1I57Z7dk5/RcCOlayzPCOFrdb6nsh2+wACI5YAAAAAAAAAAAB9UqUpSUIrOUmlFc23ki99DWao29OivUpxjnzaW1/PMrHo50W6t2qrX2dFNt8HJrKK82/AtqJYpjxk7vS6sRc38mQATHVB43VCNSEoTSlCUWpRfFNZNHsAGslD6c0bK2uJ0JLsy6r5wfZfy88zRLX6QtAO4oqtBZ1qSk9X24b5L4rLNePMqcqTjtZ5fV6f0bMfD7GQAaFUAAA2tGaRq29VVaUtWa8U1szi1xTyXyLiwziCleUtePVnHJVIPfF5ea5MpM2tGaQqW9VVaUtWcfk1xUlxRJCe0u6TVul4f4l+Ag2iOkWhJJXEJUp8ZRTlB/LavM3bzpAsYxzhKdWXCKi15yySLG+Pk7i1dLWdyJNdXEacHOclGMU3KT3JIqHF+J53c9WGcLaLWrB7HJ+1L6I8cSYnrXjyklTpJtxprPwcn6zOGQWWZ4RydZrvU9kO32AARHMAAAAAAAAAAAAABMejvQDq1v0mpH7Km/s890qmfmo7fHLkbRWXglpqds1BE4wdob9FtYwf6yXWqv3nw8EkvA7phIyW0scHqq4KEVFfAABk3AAAMNFVY/w16Co7mkl6GcuvFL9XJ8fuvyfxRax5XFCM4OE4qUZJqUXuafBmso7kV9Tp43Q2v8Ao/PwJFi/DE7SetHOVvJ9SXGL9iX0fEjpUaaeDzNlcq5bZdwADBGAAAAAAAAAAAAAAAAAAAAAADc0Toyrc1VRpLOT2tvYorjKT5GTaMXJ4Xc98PaFqXddUo5qOx1amWyEefx5IurR9lCjSjSprVhFZRX583nm/E08PaDpWlH0dNbXk6k3vlLLe+7uOqWoQ2o9Ho9KqY892AAbl0AAAAAAAAA8bq2hUhKE4qcJJqUWtjRVOLcH1LZurSTqW+b4Nyp/e5x975luHzKOayNZQUitqdNC+OH38n57BZWJsAxnnUtcqc+NF7IS74v1X3bvgV1d2tSlN06kHCae2L3/AO670VpQcTz9+mspfuXHk8gAaFYAAAAAAAAAAAAAAAAExw3gSrVcalx9lR3+j/7kl3+yvM2UW+xNVRO14gjg6B0HWu6mpTj1U16So+zBd/N9xb2H9B0rSl6Oms3vnUeWtJ833dxuWFjTo01SpQUIRWyK/HvfebJZhBRO/pdHGhZ7swkZANy6AAAAAAAAAAAAAAADR0pomhcQ1K1NTXB+tHvi96ZvAGJRUlhlZ6b6O6ketbT9Iv8AxzaUl8JbE/HIh1/o+tQlq1qcqcuGa2P4Pc/Av08bi2hOLjOEZxe+Mkmn4MilUn2Odd0yuXMOPo/P4Lf0hgaxqLZTdF86by/lecfIj1z0aSzzp3Sa4KUNvzUvoRuqRzp9Ouj2WSAgllfo9vo9n0VRd0mn/MjSngrSK/w2fwnS/wBRpsl4IHpbl/F/o4AO9HBukX/hX/HS/wBRsUcBaQlvhTh96a/pzGyXgwtNc/4v9EZBOaHRrWfbuIR56sZS/Fo7mjujy0htqSnXfJvVj8o7fm2bKqTJ4dPvk+VgqylSlKSjGLlJ7opNt+CJRojAd3VadVK3p7M28nNruiuPxLPsNFUKKypUoU+erFJv4vezcSJI0r5L9XS4rmbycPQWFbW12whr1ONWeTl4cI+B3EjIJUkjpQhGCxFYAAMm4AAAAAAAAAAAAAAAAAAAAAAAAPlgGPkyjJgA2NWBIAGGDKAMG5kAAwAAAAAAAAAAAAAAAf/Z;" parent="1" vertex="1">
          <mxGeometry x="60" y="590" width="40" height="40" as="geometry" />
        </mxCell>
        <mxCell id="avbdHqin9oMnhoK1nbsH-55" value="" style="shape=image;verticalLabelPosition=bottom;labelBackgroundColor=default;verticalAlign=top;aspect=fixed;imageAspect=0;image=data:image/jpeg,/9j/4AAQSkZJRgABAQAAAQABAAD/2wCEAAkGBxASDxUQEhAVEBAVERAYEBAXFxUYFhUXGBIXFhYVFRkYHSggGRonGxUTIjEhJSktLi4uFx8zODMsNygtLysBCgoKDg0OGxAQGy0lICEtKy0vLS0tLS4rLSstLS0tLS0tKy0tLS0tLS0tLS0tLS0tLS0tLS0tLS0tLS0tLS0tLf/AABEIAOEA4QMBIgACEQEDEQH/xAAcAAEAAgMBAQEAAAAAAAAAAAAABgcBBAUDAgj/xABDEAACAQICBgYHBAgFBQAAAAAAAQIDBAYRBRIhMUFRByIyYYGhE0JSYnGRwSNysdEUM2OCkqLC8ESy0uHxJENTo7P/xAAaAQEAAgMBAAAAAAAAAAAAAAAAAwQBAgUG/8QAKhEAAgIBAwMEAgIDAQAAAAAAAAECAxEEEiEFMVETIkGxMpFCgWFxoSP/2gAMAwEAAhEDEQA/ALxAAAAAAAAAAMNgGTDZGtM41tKGcVL01RepDbt75bkQnSmPburmoatCO3srOWX3n9EaOyKKl2tpq4by/CLWr3EILOU4xXNtL8TiXmM7CnsddTfKCc/OOzzKduK86ktacnOT3yk235nwRu5/Bz59Vl/GP7LPq9JNquzRrS78oL+o8JdJlLhaz8ZRK3Br6siu+pXv5/4WOukynxtZ/wAcfyPWn0l2/rW9VfBwf4tFZgx6sguo3+f+Fu2mPLCexzlS+/FpfNZo7tppKhVWdOrCovdkn+BQoW/PjwfE2Vz+SaHVZr8kmfoXMyUtovF97Q2Kr6SPsVM5L555+ZMtDdIdCfVuIuhL2lnKD+W1f3tJI2RZfq6hTPhvD/yTcHjbXEKkVOElODXVlFpp/Bo9iQvAAAAAAAAAAAAAAAAAAAGGyE4wxqqLlQt8pVk8p1N8YbNy5y8l5GHJLuRW3Qqjukzu6fxJQtINzlrVMurRTWu/Dgu9lY6fxbc3Ty1nRpcKUG1mvfe+X4dxxK9aU5Oc5Oc5POUm8233nwVpWORwdRr7LeFwjBkAjKAAAAAAAAAAAAAAABvaK0xcW0tajUcdu2O+MvjHc/xLJw3jijcNU6qVCs+ym+pP4Se59z8yqDBvGbiWtPq7KXxyvB+hkzJVWFMbToNUrhupQySjP1qfx9qPmvItC2rxnFTjJSjJJxknmmuaLMZKR6DT6mF0cx/R6gA2LAAAAAAAAAAMNmSEY+xS6K/RqMsqzS9JNZdSL4L3n5LwMSeFkiutjVBykaOOMYdq2t5c1VqpvNPPJwg+e/NlfAFSUtzyea1F8rpbpAAGpXAAAAAAAAAAAAAAAAAAAAABIsI4onaT1ZZzt5PrQ4xb9aH1XEjoMptdiSu2Vct0e5f9pcwqQjUhJShJJxktzR7lR4HxM7aoqNRt285Lbn+rk32tvq8/mW1GSe7ai3CW5HpdNqY3wyu/yfQANiyAAAADEmAcbFWm42lvKo2nUeaox5yy2eC3spavWlObnOTlOTblJ723vZ3Maaad1dSyf2VNyhSXB5PrS8Wl4JHAKtktzPOa/UerZhdkAARlAAAAAAAAAAAAAAAAAAAAGadNykoxTlJtKMUs229ySQMiMW2klm28klvb5IlGj8BXtRZyUaK995y+Uc/Ml2C8JRt0q1VKVxJLZsyp9y7+bJckTwq+WdjTdNTjut/RVN50eXkFnCVOr7qbi/DW2eZFry0qUpunUg6c1vi9/wDx3l/5HCxXh6F3RayUayWdOpltT9l+6zMql8G+o6ZDbmvv4KWLL6N8Qa8f0Oo+tBZ0XzgvV+Kz+XwK2nFptNZNNprk08mj1s7qdKpGrB6s4STi/h9OBFGW1nM017psUv2foAGjobSULihCtDdKKzXsvjF96eZvFs9RGSksoAAGQRnH2lvQWclF5VKvUhz29t/w57e9ElbKk6SNIelvPRp5xpQUe7WfWl/SvA0seIlTW3enS2u74IoZAKh5gAAAAAAAAAAAAAAAAAAAH1TpuUlGKcpNpRit7b3JAyuTFODk1GKcpNpRitrbe5JcS1sF4RVsvTVkpXD3cVTT4LnLm/D4sFYSVslWqpSuGt29U1yXfzZLyxXXjlnd0Oh2e+a5+ggATHUBhmTW0jewo0pVaktWEVm3/fEGG0lllL4qpqN9cRW70sn8+s/Ns5R7X1y6tWdV75znJ92bbyPEpPueSsac215J10X6X1akrSW6ec6fdJLrL5JPwZZaKD0ZeyoVoVo9qE08ua4rxWa8S97SvGpCM4vOMoxlF801mixVLKwdzpl26vY/j6PYAEp0jxuqyhCU3ujGTfgsygq9eVScqktspylKT7283+JcWPLr0ej6zTyckoL99qL8mymiC584OJ1WfujH+wACA5AAAAAAAAAAAAAAAAAPqnByajFOUm0oxW1tvckDOMmKcHJqMU5SbSjFLNtvgkWtgrCStoqtWSlcSSyW9U1luXvbdr/tsFYRjbRVaslK5aeXFU0+Efe5v+3LkixXXjlnd0Oh2e+ffx4CRkAmOoADwu7qFOEqk5KEIpuUnuSAbwZu7mFOEqk5KMIpuUnuSRUOLcUTvJ6sc4W8ezB7HJ+1L6LgYxfiad5U1I9W3hJ+jjtTl78/ouGZHitZZnhHA1utdnsh2+wACI5gLf6PL30lhBcabdN+G2P8riVAT7onuOtXp8GqUku/OUW/lqktT9xf6dPbcl5LIB85gsnoyFdK1Vq1pR9qus/CnJ/kVgWR0sy+yoL9pP8Ay/7lbla38jznUXm9/wBAAERQMxi28ks29yW99yJXofAV1WipzcbeL3KSbn4xW7xfgdvo4w9FQV5UjnOTfoM/Vjucsubefh8SfZE8KsrLOxpOnqUd9nz8FZ3PRrWUc4XEJv2XFxz8c3+BENI6OrUJ+jq03CXDPc++L3NF+HM07oaldUnTqR74S4xeW9f3tNpVLHBNf02DWa+GUYDoac0RVtazpVF3wmuzOPNfVcDnldrBw5wcHtYABg1ABmEHJqMU5SbSjFbW29yS4mTPczTpuTUYpyk3lGK2tvkkWrgrCUbeKrVUpXEktnCn3Lv5sYLwirZemrJSuGtnFU01uXOXN+HxlyRPXXjlnd0Oh2e+ff6CRkAmOoADwvLqFOEqk5asIpuUuSQMN45Zm6uIU4Oc5KMIrOUm8kkVDi3FE7uerHOFuuzDPt7e1PyyXAYuxRO7nqR6ttGWcI5bZNLtS88lwI6V7LM8I4Wt1vqeyHb7AAITlgAAAlnRlW1b/V4To1F8nGS/BkTO/gGeWkqHe6q/9M/yNofkixpXi6L/AMouYGAXT1WSBdLK+zoP36n+VFcFmdK8P+noy/bNfOnL8isypb+R5zqK/wDd/wBAwzIIygXxoSKVtRS3KjSy/gRvEW6P9MKvaRpt/aUcoSXNZdWXwy2fFMlJdi8rJ62manWmvAABklObp3Q1K6oulUWzfGS7UZcJIpvTmh6trVdKouL1J8Jxz3ry2cC9jmad0NSuqTp1Fz1J+tB+1EjnDcUtZpFcsr8ijAdDTmh6trWdKou+E12Zrmvy4GhTg5NRinKTaUYra2+SRWxh4POyhKMtrXJmnTcmoxTlJtKMVvbe5ItXBWElbJVqqzuJLdvVNPgve3ZsYKwkreKrVUpXDSy/ZrLsrv5slyRPXXjlnb0Oh2e+ff6CRkAmOoADxu7iNODnOSjGKblJ7kkDDeDF5dQpQdSpJQhFZyk3kkVDi7E87yerHOFvBvUjn23wnNfguBnF2J53c9WGcbaLWrB75NetL6LgR0r2WZ4RwtbrfU9kO32AAQnLAAAAAAB3sCLPSVD71T/4zOCSbo4pa2kIv2KdWXko/wBRtD8kT6ZZuj/tFvAyC6eqIv0jW2vo+bW10505+Clk/KTKiL60raqrQqUms1OnOPzi0UJk+O/iVrlzk4fVYYmpeUZABCco2tF6QqW9WNalLKcfk1xUlxRcWGMQUrulrRajVSXpaXGL+qfMpM2tGaQq29VVaUnGS38pLPNxkuKeRJCe0u6TWSpeH2L7zMnGw1p+neUtePVmtlSk2m4v6rkzsllPJ6OElJZXYAAybHN05oaldUnSqrZnnGS7UXwaZxcI4Ohat1ajVSvnJKS7MY55LVT4tb335fGWAxtWckUqYSmptcowkZAMkoAPG5uYU4Oc5KMIrOUm8kkDDeDF5dQp05VJyUIRTcpPckVFi/E07ypqR6tvGT1I7U5cNaf0XDMxi3FE7yerHWhbrswz7TT7csvDJcCPFayzPCOFrdb6j2Q7fYABEcsAAAAAAAAAE56KaOdetP2acIr96Tf9BBi1ejGx1LN1Xvq1JP8Adj1V5qT8SSpZkXunw3Xp+CXgyC0ejwGUvjfR3oL6ol2Z/aR/ebz/AJlIukhHSdorXt43C7VJ5S74SaXk8n8yOyOUUuoVb6W13XJWAAKp5sAAA2tF6QqW9WNak8px+TXFNcUXFhnEFK7pa0dlSOr6Wnxi2uHNb8mUmbWjNIVberGrSlqyi18JLjGS4pkkJ7S7o9W6Xh9i/AcTDOIaV3S1o9Wov1lLPNxfPvTy2P6nazLKeT0cJqa3R7GQAZNgAeF3dQpwdSclCEVnKTeSQMN4WWLy6hSpyqTkowim5SfBIqLF2J53c9SPVtoyzhHc5NetPzyXAYuxRO8nqxThbxb1I57Z7dk5/RcCOlayzPCOFrdb6nsh2+wACI5YAAAAAAAAAAAB9UqUpSUIrOUmlFc23ki99DWao29OivUpxjnzaW1/PMrHo50W6t2qrX2dFNt8HJrKK82/AtqJYpjxk7vS6sRc38mQATHVB43VCNSEoTSlCUWpRfFNZNHsAGslD6c0bK2uJ0JLsy6r5wfZfy88zRLX6QtAO4oqtBZ1qSk9X24b5L4rLNePMqcqTjtZ5fV6f0bMfD7GQAaFUAAA2tGaRq29VVaUtWa8U1szi1xTyXyLiwziCleUtePVnHJVIPfF5ea5MpM2tGaQqW9VVaUtWcfk1xUlxRJCe0u6TVul4f4l+Ag2iOkWhJJXEJUp8ZRTlB/LavM3bzpAsYxzhKdWXCKi15yySLG+Pk7i1dLWdyJNdXEacHOclGMU3KT3JIqHF+J53c9WGcLaLWrB7HJ+1L6I8cSYnrXjyklTpJtxprPwcn6zOGQWWZ4RydZrvU9kO32AARHMAAAAAAAAAAAAABMejvQDq1v0mpH7Km/s890qmfmo7fHLkbRWXglpqds1BE4wdob9FtYwf6yXWqv3nw8EkvA7phIyW0scHqq4KEVFfAABk3AAAMNFVY/w16Co7mkl6GcuvFL9XJ8fuvyfxRax5XFCM4OE4qUZJqUXuafBmso7kV9Tp43Q2v8Ao/PwJFi/DE7SetHOVvJ9SXGL9iX0fEjpUaaeDzNlcq5bZdwADBGAAAAAAAAAAAAAAAAAAAAAADc0Toyrc1VRpLOT2tvYorjKT5GTaMXJ4Xc98PaFqXddUo5qOx1amWyEefx5IurR9lCjSjSprVhFZRX583nm/E08PaDpWlH0dNbXk6k3vlLLe+7uOqWoQ2o9Ho9KqY892AAbl0AAAAAAAAA8bq2hUhKE4qcJJqUWtjRVOLcH1LZurSTqW+b4Nyp/e5x975luHzKOayNZQUitqdNC+OH38n57BZWJsAxnnUtcqc+NF7IS74v1X3bvgV1d2tSlN06kHCae2L3/AO670VpQcTz9+mspfuXHk8gAaFYAAAAAAAAAAAAAAAAExw3gSrVcalx9lR3+j/7kl3+yvM2UW+xNVRO14gjg6B0HWu6mpTj1U16So+zBd/N9xb2H9B0rSl6Oms3vnUeWtJ833dxuWFjTo01SpQUIRWyK/HvfebJZhBRO/pdHGhZ7swkZANy6AAAAAAAAAAAAAAADR0pomhcQ1K1NTXB+tHvi96ZvAGJRUlhlZ6b6O6ketbT9Iv8AxzaUl8JbE/HIh1/o+tQlq1qcqcuGa2P4Pc/Av08bi2hOLjOEZxe+Mkmn4MilUn2Odd0yuXMOPo/P4Lf0hgaxqLZTdF86by/lecfIj1z0aSzzp3Sa4KUNvzUvoRuqRzp9Ouj2WSAgllfo9vo9n0VRd0mn/MjSngrSK/w2fwnS/wBRpsl4IHpbl/F/o4AO9HBukX/hX/HS/wBRsUcBaQlvhTh96a/pzGyXgwtNc/4v9EZBOaHRrWfbuIR56sZS/Fo7mjujy0htqSnXfJvVj8o7fm2bKqTJ4dPvk+VgqylSlKSjGLlJ7opNt+CJRojAd3VadVK3p7M28nNruiuPxLPsNFUKKypUoU+erFJv4vezcSJI0r5L9XS4rmbycPQWFbW12whr1ONWeTl4cI+B3EjIJUkjpQhGCxFYAAMm4AAAAAAAAAAAAAAAAAAAAAAAAPlgGPkyjJgA2NWBIAGGDKAMG5kAAwAAAAAAAAAAAAAAAf/Z;" parent="1" vertex="1">
          <mxGeometry x="60" y="830" width="40" height="40" as="geometry" />
        </mxCell>
        <mxCell id="avbdHqin9oMnhoK1nbsH-56" value="" style="shape=image;verticalLabelPosition=bottom;labelBackgroundColor=default;verticalAlign=top;aspect=fixed;imageAspect=0;image=data:image/jpeg,/9j/4AAQSkZJRgABAQAAAQABAAD/2wCEAAkGBxASDxUQEhAVEBAVERAYEBAXFxUYFhUXGBIXFhYVFRkYHSggGRonGxUTIjEhJSktLi4uFx8zODMsNygtLysBCgoKDg0OGxAQGy0lICEtKy0vLS0tLS4rLSstLS0tLS0tKy0tLS0tLS0tLS0tLS0tLS0tLS0tLS0tLS0tLS0tLf/AABEIAOEA4QMBIgACEQEDEQH/xAAcAAEAAgMBAQEAAAAAAAAAAAAABgcBBAUDAgj/xABDEAACAQICBgYHBAgFBQAAAAAAAQIDBAYRBRIhMUFRByIyYYGhE0JSYnGRwSNysdEUM2OCkqLC8ESy0uHxJENTo7P/xAAaAQEAAgMBAAAAAAAAAAAAAAAAAwQBAgUG/8QAKhEAAgIBAwMEAgIDAQAAAAAAAAECAxEEEiEFMVETIkGxMpFCgWFxoSP/2gAMAwEAAhEDEQA/ALxAAAAAAAAAAMNgGTDZGtM41tKGcVL01RepDbt75bkQnSmPburmoatCO3srOWX3n9EaOyKKl2tpq4by/CLWr3EILOU4xXNtL8TiXmM7CnsddTfKCc/OOzzKduK86ktacnOT3yk235nwRu5/Bz59Vl/GP7LPq9JNquzRrS78oL+o8JdJlLhaz8ZRK3Br6siu+pXv5/4WOukynxtZ/wAcfyPWn0l2/rW9VfBwf4tFZgx6sguo3+f+Fu2mPLCexzlS+/FpfNZo7tppKhVWdOrCovdkn+BQoW/PjwfE2Vz+SaHVZr8kmfoXMyUtovF97Q2Kr6SPsVM5L555+ZMtDdIdCfVuIuhL2lnKD+W1f3tJI2RZfq6hTPhvD/yTcHjbXEKkVOElODXVlFpp/Bo9iQvAAAAAAAAAAAAAAAAAAAGGyE4wxqqLlQt8pVk8p1N8YbNy5y8l5GHJLuRW3Qqjukzu6fxJQtINzlrVMurRTWu/Dgu9lY6fxbc3Ty1nRpcKUG1mvfe+X4dxxK9aU5Oc5Oc5POUm8233nwVpWORwdRr7LeFwjBkAjKAAAAAAAAAAAAAAABvaK0xcW0tajUcdu2O+MvjHc/xLJw3jijcNU6qVCs+ym+pP4Se59z8yqDBvGbiWtPq7KXxyvB+hkzJVWFMbToNUrhupQySjP1qfx9qPmvItC2rxnFTjJSjJJxknmmuaLMZKR6DT6mF0cx/R6gA2LAAAAAAAAAAMNmSEY+xS6K/RqMsqzS9JNZdSL4L3n5LwMSeFkiutjVBykaOOMYdq2t5c1VqpvNPPJwg+e/NlfAFSUtzyea1F8rpbpAAGpXAAAAAAAAAAAAAAAAAAAAABIsI4onaT1ZZzt5PrQ4xb9aH1XEjoMptdiSu2Vct0e5f9pcwqQjUhJShJJxktzR7lR4HxM7aoqNRt285Lbn+rk32tvq8/mW1GSe7ai3CW5HpdNqY3wyu/yfQANiyAAAADEmAcbFWm42lvKo2nUeaox5yy2eC3spavWlObnOTlOTblJ723vZ3Maaad1dSyf2VNyhSXB5PrS8Wl4JHAKtktzPOa/UerZhdkAARlAAAAAAAAAAAAAAAAAAAAGadNykoxTlJtKMUs229ySQMiMW2klm28klvb5IlGj8BXtRZyUaK995y+Uc/Ml2C8JRt0q1VKVxJLZsyp9y7+bJckTwq+WdjTdNTjut/RVN50eXkFnCVOr7qbi/DW2eZFry0qUpunUg6c1vi9/wDx3l/5HCxXh6F3RayUayWdOpltT9l+6zMql8G+o6ZDbmvv4KWLL6N8Qa8f0Oo+tBZ0XzgvV+Kz+XwK2nFptNZNNprk08mj1s7qdKpGrB6s4STi/h9OBFGW1nM017psUv2foAGjobSULihCtDdKKzXsvjF96eZvFs9RGSksoAAGQRnH2lvQWclF5VKvUhz29t/w57e9ElbKk6SNIelvPRp5xpQUe7WfWl/SvA0seIlTW3enS2u74IoZAKh5gAAAAAAAAAAAAAAAAAAAH1TpuUlGKcpNpRit7b3JAyuTFODk1GKcpNpRitrbe5JcS1sF4RVsvTVkpXD3cVTT4LnLm/D4sFYSVslWqpSuGt29U1yXfzZLyxXXjlnd0Oh2e+a5+ggATHUBhmTW0jewo0pVaktWEVm3/fEGG0lllL4qpqN9cRW70sn8+s/Ns5R7X1y6tWdV75znJ92bbyPEpPueSsac215J10X6X1akrSW6ec6fdJLrL5JPwZZaKD0ZeyoVoVo9qE08ua4rxWa8S97SvGpCM4vOMoxlF801mixVLKwdzpl26vY/j6PYAEp0jxuqyhCU3ujGTfgsygq9eVScqktspylKT7283+JcWPLr0ej6zTyckoL99qL8mymiC584OJ1WfujH+wACA5AAAAAAAAAAAAAAAAAPqnByajFOUm0oxW1tvckDOMmKcHJqMU5SbSjFLNtvgkWtgrCStoqtWSlcSSyW9U1luXvbdr/tsFYRjbRVaslK5aeXFU0+Efe5v+3LkixXXjlnd0Oh2e+ffx4CRkAmOoADwu7qFOEqk5KEIpuUnuSAbwZu7mFOEqk5KMIpuUnuSRUOLcUTvJ6sc4W8ezB7HJ+1L6LgYxfiad5U1I9W3hJ+jjtTl78/ouGZHitZZnhHA1utdnsh2+wACI5gLf6PL30lhBcabdN+G2P8riVAT7onuOtXp8GqUku/OUW/lqktT9xf6dPbcl5LIB85gsnoyFdK1Vq1pR9qus/CnJ/kVgWR0sy+yoL9pP8Ay/7lbla38jznUXm9/wBAAERQMxi28ks29yW99yJXofAV1WipzcbeL3KSbn4xW7xfgdvo4w9FQV5UjnOTfoM/Vjucsubefh8SfZE8KsrLOxpOnqUd9nz8FZ3PRrWUc4XEJv2XFxz8c3+BENI6OrUJ+jq03CXDPc++L3NF+HM07oaldUnTqR74S4xeW9f3tNpVLHBNf02DWa+GUYDoac0RVtazpVF3wmuzOPNfVcDnldrBw5wcHtYABg1ABmEHJqMU5SbSjFbW29yS4mTPczTpuTUYpyk3lGK2tvkkWrgrCUbeKrVUpXEktnCn3Lv5sYLwirZemrJSuGtnFU01uXOXN+HxlyRPXXjlnd0Oh2e+ff6CRkAmOoADwvLqFOEqk5asIpuUuSQMN45Zm6uIU4Oc5KMIrOUm8kkVDi3FE7uerHOFuuzDPt7e1PyyXAYuxRO7nqR6ttGWcI5bZNLtS88lwI6V7LM8I4Wt1vqeyHb7AAITlgAAAlnRlW1b/V4To1F8nGS/BkTO/gGeWkqHe6q/9M/yNofkixpXi6L/AMouYGAXT1WSBdLK+zoP36n+VFcFmdK8P+noy/bNfOnL8isypb+R5zqK/wDd/wBAwzIIygXxoSKVtRS3KjSy/gRvEW6P9MKvaRpt/aUcoSXNZdWXwy2fFMlJdi8rJ62manWmvAABklObp3Q1K6oulUWzfGS7UZcJIpvTmh6trVdKouL1J8Jxz3ry2cC9jmad0NSuqTp1Fz1J+tB+1EjnDcUtZpFcsr8ijAdDTmh6trWdKou+E12Zrmvy4GhTg5NRinKTaUYra2+SRWxh4POyhKMtrXJmnTcmoxTlJtKMVvbe5ItXBWElbJVqqzuJLdvVNPgve3ZsYKwkreKrVUpXDSy/ZrLsrv5slyRPXXjlnb0Oh2e+ff6CRkAmOoADxu7iNODnOSjGKblJ7kkDDeDF5dQpQdSpJQhFZyk3kkVDi7E87yerHOFvBvUjn23wnNfguBnF2J53c9WGcbaLWrB75NetL6LgR0r2WZ4RwtbrfU9kO32AAQnLAAAAAAB3sCLPSVD71T/4zOCSbo4pa2kIv2KdWXko/wBRtD8kT6ZZuj/tFvAyC6eqIv0jW2vo+bW10505+Clk/KTKiL60raqrQqUms1OnOPzi0UJk+O/iVrlzk4fVYYmpeUZABCco2tF6QqW9WNalLKcfk1xUlxRcWGMQUrulrRajVSXpaXGL+qfMpM2tGaQq29VVaUnGS38pLPNxkuKeRJCe0u6TWSpeH2L7zMnGw1p+neUtePVmtlSk2m4v6rkzsllPJ6OElJZXYAAybHN05oaldUnSqrZnnGS7UXwaZxcI4Ohat1ajVSvnJKS7MY55LVT4tb335fGWAxtWckUqYSmptcowkZAMkoAPG5uYU4Oc5KMIrOUm8kkDDeDF5dQp05VJyUIRTcpPckVFi/E07ypqR6tvGT1I7U5cNaf0XDMxi3FE7yerHWhbrswz7TT7csvDJcCPFayzPCOFrdb6j2Q7fYABEcsAAAAAAAAAE56KaOdetP2acIr96Tf9BBi1ejGx1LN1Xvq1JP8Adj1V5qT8SSpZkXunw3Xp+CXgyC0ejwGUvjfR3oL6ol2Z/aR/ebz/AJlIukhHSdorXt43C7VJ5S74SaXk8n8yOyOUUuoVb6W13XJWAAKp5sAAA2tF6QqW9WNak8px+TXFNcUXFhnEFK7pa0dlSOr6Wnxi2uHNb8mUmbWjNIVberGrSlqyi18JLjGS4pkkJ7S7o9W6Xh9i/AcTDOIaV3S1o9Wov1lLPNxfPvTy2P6nazLKeT0cJqa3R7GQAZNgAeF3dQpwdSclCEVnKTeSQMN4WWLy6hSpyqTkowim5SfBIqLF2J53c9SPVtoyzhHc5NetPzyXAYuxRO8nqxThbxb1I57Z7dk5/RcCOlayzPCOFrdb6nsh2+wACI5YAAAAAAAAAAAB9UqUpSUIrOUmlFc23ki99DWao29OivUpxjnzaW1/PMrHo50W6t2qrX2dFNt8HJrKK82/AtqJYpjxk7vS6sRc38mQATHVB43VCNSEoTSlCUWpRfFNZNHsAGslD6c0bK2uJ0JLsy6r5wfZfy88zRLX6QtAO4oqtBZ1qSk9X24b5L4rLNePMqcqTjtZ5fV6f0bMfD7GQAaFUAAA2tGaRq29VVaUtWa8U1szi1xTyXyLiwziCleUtePVnHJVIPfF5ea5MpM2tGaQqW9VVaUtWcfk1xUlxRJCe0u6TVul4f4l+Ag2iOkWhJJXEJUp8ZRTlB/LavM3bzpAsYxzhKdWXCKi15yySLG+Pk7i1dLWdyJNdXEacHOclGMU3KT3JIqHF+J53c9WGcLaLWrB7HJ+1L6I8cSYnrXjyklTpJtxprPwcn6zOGQWWZ4RydZrvU9kO32AARHMAAAAAAAAAAAAABMejvQDq1v0mpH7Km/s890qmfmo7fHLkbRWXglpqds1BE4wdob9FtYwf6yXWqv3nw8EkvA7phIyW0scHqq4KEVFfAABk3AAAMNFVY/w16Co7mkl6GcuvFL9XJ8fuvyfxRax5XFCM4OE4qUZJqUXuafBmso7kV9Tp43Q2v8Ao/PwJFi/DE7SetHOVvJ9SXGL9iX0fEjpUaaeDzNlcq5bZdwADBGAAAAAAAAAAAAAAAAAAAAAADc0Toyrc1VRpLOT2tvYorjKT5GTaMXJ4Xc98PaFqXddUo5qOx1amWyEefx5IurR9lCjSjSprVhFZRX583nm/E08PaDpWlH0dNbXk6k3vlLLe+7uOqWoQ2o9Ho9KqY892AAbl0AAAAAAAAA8bq2hUhKE4qcJJqUWtjRVOLcH1LZurSTqW+b4Nyp/e5x975luHzKOayNZQUitqdNC+OH38n57BZWJsAxnnUtcqc+NF7IS74v1X3bvgV1d2tSlN06kHCae2L3/AO670VpQcTz9+mspfuXHk8gAaFYAAAAAAAAAAAAAAAAExw3gSrVcalx9lR3+j/7kl3+yvM2UW+xNVRO14gjg6B0HWu6mpTj1U16So+zBd/N9xb2H9B0rSl6Oms3vnUeWtJ833dxuWFjTo01SpQUIRWyK/HvfebJZhBRO/pdHGhZ7swkZANy6AAAAAAAAAAAAAAADR0pomhcQ1K1NTXB+tHvi96ZvAGJRUlhlZ6b6O6ketbT9Iv8AxzaUl8JbE/HIh1/o+tQlq1qcqcuGa2P4Pc/Av08bi2hOLjOEZxe+Mkmn4MilUn2Odd0yuXMOPo/P4Lf0hgaxqLZTdF86by/lecfIj1z0aSzzp3Sa4KUNvzUvoRuqRzp9Ouj2WSAgllfo9vo9n0VRd0mn/MjSngrSK/w2fwnS/wBRpsl4IHpbl/F/o4AO9HBukX/hX/HS/wBRsUcBaQlvhTh96a/pzGyXgwtNc/4v9EZBOaHRrWfbuIR56sZS/Fo7mjujy0htqSnXfJvVj8o7fm2bKqTJ4dPvk+VgqylSlKSjGLlJ7opNt+CJRojAd3VadVK3p7M28nNruiuPxLPsNFUKKypUoU+erFJv4vezcSJI0r5L9XS4rmbycPQWFbW12whr1ONWeTl4cI+B3EjIJUkjpQhGCxFYAAMm4AAAAAAAAAAAAAAAAAAAAAAAAPlgGPkyjJgA2NWBIAGGDKAMG5kAAwAAAAAAAAAAAAAAAf/Z;" parent="1" vertex="1">
          <mxGeometry x="60" y="1070" width="40" height="40" as="geometry" />
        </mxCell>
        <mxCell id="5RZObBpU1f4yu_yqTgpw-1" value="" style="shape=image;verticalLabelPosition=bottom;labelBackgroundColor=default;verticalAlign=top;aspect=fixed;imageAspect=0;image=data:image/png,iVBORw0KGgoAAAANSUhEUgAAA9cAAAQACAMAAADcNVoCAAAAJFBMVEUqxewdwOxByu5X0fF02fPF7/qO4PSl5/fx+/3a9fvB7vodwOxMM1r1AAAAC3RSTlPW4r+oizpxWg4kAB8U2ugAACAASURBVHja7d3rYp24FUBh7pzj8/7vWztJkzgTBwmEkMS3/rXTqW1gsS/aSN0bgNboXAKA1wB4DYDXAHgNgNcArwHwGgCvAfAaAK8BXgPgNQBeA+A1AF4D4DXAawC8BsBrALwGwGuA1wB4DYDXAHgNgNcArwHwGgCvAfAaAK8B8BrgNQBeA+A1AF4D4DXAawC8BsBrALwGwGuA1y4BwGsAvAbAawC8BsBrgNcAeA2A1wB4DYDXAK8B8BoArwHwGgCvAfAa4DUAXgPgNQBeA+A1wGsAvAbAawC8BsBrgNcAeA2A1wB4DYDXAHgN8BoArwHwGgCvAfAa4DUAXgPgNQBeA+A1wGuXAOA1AF4D4DUAXgPgNcBrALwGwGsAvAbAa4DXAHgNgNcAeA2A1wB4DfAaAK8B8BoArwHwGuA1AF4D4DUAXgPgNcBrALwGwGsAvAbAawC8BngNgNcAeA2A1wB4DfAaAK8B8BoArwHwGuC1SwDwGgCvAfAaAK8B8BrgNQBeA+A1AF4D4DXAawC8BsBrALwGwGsAvAZ4DfziMb+zfGf8wfT9P67v/+TpCvEatfCc12Uax6Hv+9c/ef8fdN9En2dXjdcoNTqv71G527L5C8OH8T2Gi+C8RjnM6/Qu9Oswff8evueHC8prXBykl4+M+5WS9+x8Ebp5jYsK6XUa0hr9p9yuMa+RNfNekiTe22m5rJzXyBSnx/50p3/JPYjbvMbJ9fQ6dfmc/hW3V/U2r3FWoB6yO/0rbE/CNq+RXOrpOqn/30qjNq/RlNTU5jWalJravEYDNfU/am1tNF5jN+tYnNT/V3u1sM1r7Mq/u0Kt/q62fJzXiA7VQ8lSC9q8Rmuh+hedSpvXCGMe65D6e9AepeO8RgsJuHSc14jhUZ3V39Pxhdm8xldWL92rUrpFoc1rtGX193UvZvMabVnNbF6jRau/ma3O5jV+0obVOmi8xi/q7IF/afbqjvIac1NWf1vPNqnC65vzHBuz2gwar7XLpgat/t4aV2bz+raFdfdqlm5xf3l9yxR86F8No8zmtRRcMs5r1M98dgr+7ezb78fYz3+wvv930ziO/enHhljz4vWtUvDzuuAfOk/vKgeNdD7neVnGE48F6kejpbzWLzvkUPch9C6PHu8xfDyn3Nc/47VgvbtHleLI6ne7pyF57O4HIZvXgnV03v2udMr+VPojeHshm9eCdVTmfc5Bl8816Rkjqmxet026Nvjph9c+14RxW2Oc1+3ySBWsc51aOycL2/1oLZvXjebgQyKpc+4l9kx1llBn/IzXLbL0SaRes9eqjzRqa5/xWg5eitQJ1ZaL87o1jjfM+ovPzElxYq9cnNdNsfaHY10BSsxTJxfnNRLl4Hk7Zf/Oxw8Gbbk4r1vhYB+8sF2F5oMfmBor5bXSusSTaJ/LoYEVMyq8vnlp/Z6Al5m2HkrHFdm8rr60PpC19kPBke3IId2KbF5XrvXQptVHzR6Izet62d8xq2IL7gNmd7pnvK6V3R2z4mP1cbONqPC6UvZ2zKqx+pvZezto/cpr3Ejr2taB9vbG+4nXqI6djfAaD5rdeczvzcXm9X207qcq+0mPvX/tg9eo6UHf1U+q+Oibnfu23Xm9i9f1aT3cobD+o8zuiM1rWjeXlO5Lxu8rNq/voHULp0/uOiH0tmLzun2t+6WNp3tPZ/yuYvO6da0bOupmT//spmLzunWtm/pucUf/7J5i87ptrVvbQGRHlX1LsXndstYtzmYsxOb1vbVu87Om+O9Tbyg2r5vVutmNQ+Ln7e4nNq9rYfSp4k+i22e3E5vXlRA7b9X2jrvRufjIa9SvdfOb98Xm4nf7bJPXdSSe/Y0XrdNckonXqPsZvsf2XpEbvN1rayRe1/AE90rr40X2rcTmdQXPb6e0/nuRHdd1uNP2w7wu/+kd1JFfQWxe18og2UzVebjPMjavmwpJ9ztOMq5IGXmN+gLSHQ+wiRL7NlUKr8smqhV+z1Pdo/oPd6lTeN1OMLrrnj9xYj95jZqe2Ptuvhk1VNo9eI1rGS1bhxHTXBx5jUuJ6Jnd/Zy5yaXidS3FtWf1HLFnXuO6qrGj9Tli32A5kNcNFNe0jhR74DWKL65pHSt2+1eM19UX17TeIfbMa1xRXA/Wbc4Uu/USm9eFPqHGUc69bCOvkZ3wsXBa70tzGh8U53WRj2dH69PFfvIaeRmVieeLPfAaWQle4qL1fwn+BK7pzZh5XfOTubpYf7l8vcUuXlechdP6YLrTcHOC19U+luZRviL4iOyF1ygtCzeP8iXT7XvivK41C7fC9TXBTfGB18hC6ESKVvg/xe5u3hPndZ2Rpp9dq39WMzd/PfK6ysrwDgfhHiO0+zjyGp8iwvzOunzm4787EgGevZ5Z5jfkzGu8fag8jWPX918a+P6P+nEcPySPbm0FNs06PbNkFU2b/UdeBwu9jOM/bP5C8WFc1nC9A5PHXs8sJPfpbryIzeuAhHsZh0ih//CwG6c1wMXALq45s8BX8Y3fkrz+p2jvSndHjP4UuzflXhTXV5TYI6/vFKbXaUik9KfI/bXbgU0zxXXiErvF1hmvszm96fZo5Tr1fQy7iQOv71CWnej0TzmH6T/dtMBy0NceEYQ1IhtsWPD6c+a2JqunA07K+xy2xxsvy5zGeNPShtefpM7l9M+w/UvtwNBiiSsuEw9bYlh4Tepz1A7q8ZgfPScTb25MnNffa9trpP6p9iPw+RvcqnMy8YnX7eVqU3eh1T/2Pulk4SclYre8srf3+rEOV0sdjl74aZn4xOu2QvWrHvTCz8vEGwvYt/Z6HfuKrDaRsvflHXSXR15LwC/BXPhOgvYnbeuteVevH0v3qgxz4bsZbvfavKfXz6mvzWpfZx4gaES3qQq7Y3UtTTN6ntw6m3jNak2zqm56d7OA3bFa0+wOrbObBex7eV1ht8ykWZo7P9zrIt/K67VWq1s+IS7Xve9vdZVv5PU89NVqbY0rS+usnct8G6+fY71W+zwzxWs95P6vvK6rvJoqttoaV7aAPfC6qnd1V7PVRlLSZGwBr/ZmVhPv4HXVKbhwnYyQ7cRHXtfCUnewFq6zBuwnr+u4mUPlwVq4zhqwJ15XEayrt1q4zhqwG1nqatvrBoK1cJ05YK+8Lp31vLN4vh1xPX0cZb/OP/h2xv00fjscW7iuNmAPvC78Jp7QBv840Hpa5nmju/KY5+XbcdnCdXUBu43OWbteJ16z/nZE/Rx5z5/zOh20W7jOHbAnXpdL0gGzfpjWAwMLzyNy2+A9KeNNrnijj81zSOj0nKJFOi/7TvQzGZ42i9u+B03MnLXpdaIcPJXTP982S3TJ3/uQKy0BL/yR14V2R/oU9fQXp88frA/muEODnPCRmIA1khbepQ16/TjeB++76cRk7DkFL6vbJiX9E3+LJez2vH52RUsdp7ZdzZITsNPZwOvy8qyDWr+n35l6AAFHg9mE9IRXan+HLKk1r4+V1j8Pmc9TMGyeD2Ym5QTGOyTibXl9bNW6n7KHx43zPM2knJEo9TdIxJvy+jEcqaqXS7Kvfx3/Z7fCUxhukIi35PWBYZT3BPzCAPJVOm6R6xSWGyTiDXm9vxHejxf3p/5+ColFrpOu9g0S8Xa83t0Iv9zqr8y2yHUS252z6kdTmvF677fWRVj9V7Mtcl34rKy8rlnrYqz+ZvbnHRYtcp331Dc/ENTdWeuirP7g07mAFrlOY3t7hZ7XJdynXVoPBZrzy2yLXOexvYRdexHU3VbrbilTnP+bbZHrRLZXRCde16h1P5a7iPTNbItc1ybiA6/r07ofyk6zHstgketMtpewK3+vdrfUuoLNhYTrixPxldd1aV1yCo5iEvGR1xcSv8DVWT9CQEe843VFWgvW+P7gt11gdzfTWrDGN8a2C+yqvX7Gaj0I1vgREtousGv2OvbDzH4ywoUfPNousLv7aN35Pgq/GJousOv1OnbTIzk4fmdpusCu1+tRDo4DbK90TbzOT9w8ij44/qRveUS8Vq/jVrg6OTiiE76aN0Oq1Os5SutBDo7/hobN52bmdV6iWuH9SGvsiQ0Lr7MS1QrvbVCAfQX2yOusTDpmyFBgD7zOWhj1tMZxloYbZxV6HTMVrhGOrwvshhtn9XkdU1zTGv94khpunNXn9UhrpGFod+KsOq8jimta41iIGHldXnFNa/yb7cYZr4srrmmNDTYbZ/V+qlmZ1xOtkS5K9M02xOvyOnwsnNbYZmi2IV6V14+O1kjI2GxDvGvqNtAaMSzNNsRr8jo4C+/tZIYQ1mYnxCvyOjgLNxOORJGi5/XphPbC+8UDizD6Vhe66vE6NAv3vTXCH/9WF7qq8Tp4ImXwtCKUzU7syutzWUK1tukR0tV2C69PJXQu3AoXUkaLidfXJkxWuBDP2uoCdiVeBzbNtMIR91zx+kpCm2ajJxVJy7ue11eWQXpm2AWvr3yrhk2a9XpmSO31g9enMSmucQ5jo4MpNXgduMaluP6TdYlg5jWvy7r231euFdf7Llz9h1Hxukavw9a4rFzzegdLo5ela+Xp9LUHr3ldkddhG4Zb4uI1r2vyepCF8/q8Io/XJYdrWTivz/F64vV14VovnNcneT3y+rJwLQvnNa+r8nowkcLrE9mceeL1Ka/TkHBtLwVe74bXpT6Z5sJ5zeuqvA4K1zYq5DWvq/J61DTjNa9b8zroQy5NM17zuiqvQ767tpkCr8/0euB1aoIO5DJpxuszve55nZo1ZI3LpBmveV2V14Onkdfy8Na8DlnkEq55fa7X+mZXPJXCNa95XZXXT+Ga17xuzuvVs8hrXjfn9SBc85rXrXkd0jUTrnl9drXH67RMwjWvM4QP+ypk/sWMmvGa1615HbD/kclwXvO6Mq9H4ZrXJXhtn+GUPALCte+ueX0Y5wLkTcNtk8JrXjfndcATufKW17yuyuuANNwiF68TsLmc6pzcvGm4rhmvc1wiXmd9IC1y8ZrXtXnd6ZrxuognrX/wOhkBs+G6ZrxOQaPbIJXp9fZseK9rxusEPHmdke1PNG0azuskmWGrD1qJXm/vlNJLw3mdgpXXBV3sV8dZXqdgaXU5tavycbR4zes8nZyF1+l+J5988LqQK7TyOlkvY7u8piyv84SQmdfZah7d8NBGxRLBLXOgzWWuJ6/zRRndcORJDavNDAv0ujOUgkwJTbPjyuV5vb16bTYcmUq+kdfZ3qG2DUeukm/idbZr7RNNJGJoNoR09V1rw2ZIw/a2PDOvs11rq1xIw9xuathVd62tciERa7sDUMV5vSivkYmp3dSwOK9H5TUyMbT7fVFX3bVWXiMN262chdep6FtevX7OEfyqNx4x/9r8OPrj7sJ2K2dcar0spXk9t7v08Bb5gdUY8QD+/QL5nutYK+dbO6cfp/XJ64OsTQ+H87rOu9F3Y2Xfu5Xm9dT0cDivi3r2oy7re+CuyO2utid/5DWv0zQ7+lcs725XkpOX5vXQ9OPH65pKvi/cHqaZ17E03TbjdbU3489ye33wOoK52Y1peF13ef2fB7FstUvzuu1pM15XXV7/+SwWnJAX5km7G1jw+q2yRy0oIZ+evE5xsSde8/ri8vqPNlqR+XhX2cVeeM3rFDz6VypKDNq1eT3zmtdZOjmRTTRe/4vNdjiveZ2E6ZWU0tLx2rx+4zWvUzC8UtMtT17/nSeveV3Gk7YraJdTaJfl9Rz+rPOa1wdYX6dQjNm85vUdvR5fr6bN7up6i0685nWS5/71atrssrxeGn/4eF1KYti/TqRfHrzmNa+zM73OpVt4HXO5Z17zOgHDyV6/+mHmdfiDyGteJ+DRv06nH5+85jWvS+rPJmqgPXgd9CDWfoYPr+9RXv8ss1deB3n9xmteJ3jqM3l9XTLOa15f5PVjuOpV8uxf2egXXrf+2QevP/ek+/GaAnR9ZaQfnrzm9W28nj5u9iXP/HlDpOWEbF7z+hKvp/66ztLQf9B0yOY1r6/weu1/LgZdVWTP87wu74zvdCeL3q+8/gcDr9vweu1/C2aFbDTy/PB8GsdTBM/dGK/L65HXTXj9uSE9FDaV8Hj3exxS693NvOZ1014/hisf+VDmdUoau7NWHLzmdXavx8vLz/DMYn2P3BW2z9TXvM7t9V8+fu5LnnZ7rlPXV5aL64fzOrPXj+7qJHWX20nCdrb3F695ndnr6frqc9/7aB2Pq51rxI7XvM7r9VfD2X0Fe9elUDtPkc1rXuf1eiqiX3yh2lmKbN9z8Tqr1//4lqqvZLfZ53Ks1s7R/ec1r7N6PZU0bbmbeTpidoYXmP1SeJ3T60f3akLs96B9YO3r/O6Z/c14ndPrtaEX95Glr7OH4nmdk2mM4Fey9oz51377wCDqx+UJlVsb/HZVZWTz/h7ayW1x+4cjZ/baXx3IijH73DeY8z6QM3Xdft5rO4LtubeFdqrYvEZGAs7ZqKh3djBmn/mXOk8TJaXh1ZXYR8w+UWznX6OoNLzSr/b29cbPE5vXyEfYORt9ldXW0pUkdlleP1sfEFdeBz3tVY4fPfY00M4Suyyv33jdMsHHWFaals07kvGTxK7NawvYFTOX0CkuLRk/528tzOvRYErDLOFru49K/8RnfGf8FLFr89oCdsVEzKvXe5/X6JB9RjuhMK8XC9i8rjpg7wnZJ6zY1+Z1GR2VuY/htw+sYv61Me+P+xUhl6gfl7B70kpitl4vdmFeb3ZW+jp+zRQfTl72neYSlUSe5HXFAfs9ZA+RYif/2qUwr7cXsJ+8rtXruX/dJGDHr2WnFrswr7df6TOvq/U6Ljetu5cQ2z4b2/Z6qOI1zus9Xq9Rf0a1a9j7cvHEe56V5vWY+b3G63xeL5GpaeXd/8hcPO17rDSvpyruNq8zeF37JpWxffGks5Sleb2Zq/UPXt/D6wZmFeaoIjvlaldpXs9VNM54ncProXqvI4vshE3x4rqOffjzx+u2va4/EX8vsqM+8Rrb9XrI97fzumyvX+tbA8R0z9LtKFGc15vPYsfru3jdxu44UWLPrXq91JCd8TqL110TXke1xVP1zoq7dHMN2Rmvs3jdQoEdK/bQqNfbe+WMvL6J120U2HFiJ5o7Ky/VGSrIznidx+ufz/hjXpdpHIefX4d24zgu61xLQH+GL2SnKbHL83rM84fzOrvXc7TXH5fgOU/jl0fS9v04rc+2xE7yhWpZXj/WMeBU4YXXN/F6WKeA9d9+mNZHQ2KPbXn9DD0zYeB1lV4/9x8Xvf1rjKWrHS52ii9ASvH6EXEQyvUj4rze4/XbiV5/6ziVvVlt+GstwWJXGV6vcVu9rbyu0uvhdS79UHQDPbwrPrTg9XPqIl/kI6+r9Hp8vW5tdrDYx+dJL/d63XHEaM/rKr1eXq97mx0u9rNqrx9Lt+t40ZnXNXo9v15ZzC63zg6eFR8q9vo57W2kTLyu0etn/8pj9visXeyjmfh1Xs/j/rvc8bpGr9+6Vyb6qdRVr9De4cGeeFeh1dcn4rze5/X4ykapmyg9hujbX4/Xx6y+/q7xep/Xazatu2Iz8dD5lGOx6wqvn+PhOqvjdY1e5yqwiz4tJPTYk0Nz4vkF2d8tKycR5/XONcchV7gueag0dLVrqsjrx5KmdzLxukavV+H6LWCT/OOL2Jm9nlO9sDte1+h1pkS88MM4Q3tnYyVeJyisy0jEeb3T6zyJePFHewX2zg485Dm9XlK+rCde1+h1lkS8/AMF1rO/SM7n9TwkzcE6Xtfo9SPDaEo/F+91YIm9P/HIpcdj6hu6ebze63Voz+gINWw7Hlhi724UdLmCdVMDRbze7fX5nbOuis0MA6/DUrTX0wk3c+B1jV6fHrD7SjYnDus27X1J5fD6OZzxjr5y03he7/f67IBdzeE/YXdnKtbr9aRWycTrGr0+OWB31ZwRErbYtTN8ne71Yzzr/TzwukqvT22J19ALj1vsmor0+nneIMKFiTivD3gddVxVo8V1xP3Z95if7PVZOfjHQS4XbivL6yNen/cZdj/VpHVgq2Eqz+sT+uB9P3wczHTtDZn7GH4TLeZfG/P+uN+8jvpxp1WWLffMYnriuwL2mV6nLa2/hehlbuTo1Htz0gaGw6O2CzGcFbBP9DpZaV1EiEbCF/5C6/9nYiHP/6Mkr+ckydbHmWqMbov1lF5qPz4qvBZjXOvjeq8TND3fnZZ2N2h1r2UW12rYMSXeFar1ezG9crrBDLw7Z5GrXyq9IkElyVqK18ca4X03yb1bbJdNZ61cd9U+L0Efdg2FeH3k/pG6TZ4nJeDfCraKU7uQzDZ+iq4rTOt+XCnQYP69jicOmS1VX5uQ1tlYgNeP3e/lfljU1C1G6hOlrjtYf6tOQgL283KvH4NQjZ9PwzwNp36Y2dX/0IQE7Olqr/dq3auq24vTJzv9kYI/6r9OIQE7dqmrK0PrfpKAt2T0vExjf/qOR608NSEBe73W64nVd024P1iXZRyHPsvu/10zzZiQgD1c6vWeTnjJVkd9EXVvXlnph/XRzktxTN45667Wuh/nui84stMPjSV4IQF7us7rHQd6DGW3MzsSkbqM+DFc5nX8THjx7cyeR4U53eZXAwEBO27mrMv6u/2Zghd/j3hditEf3+DPj7dWCVhGmq7xOnpzmwomCmZeX+Lwjy7c9+2gxnFpf5ucgFw3agk7mdexC9cVBOvT9uvBP5+M9WMB/IPH230IiIrrFV4PzQVrXl9D93ZHAr7DHi/wOm6Fq5ZZ/YVl+Zlu6XXAnsMx+5wl8jquFV7NnjW8viANv+nsYcBS15rb67iz1OrZ3ILXwnVBPdoxs9dxJy5V9L2scbP84fq2n/Vtd6i6zF7HPP5VbQfL6+yMd9U6IDmMeOel8DpmfLSuPWt4fcUi100JKGannF7HFNeV3TZe52Z4uy9jwqtz3OuYgZTu+cZrJJq9aI014VrBca+ndrV+G4iWeSblcWOvH326195hryNGqOvbONJ4eGaWtzuznR6OubyOWOKq8LhDXgvXZSXiubweW9aa18J1WYl48ErXQa/Ds/Aatea1cF1YIr5k8To8C69Sa14L14Ul4mMWr6e2tea1cF1aIp7D6+AsvNY7Zv1auC5rYTW0wO5O/S1qXbfmtXB9CUuql98Rr0M/uq73i1peC9dZ2Z7JHk/3OrRpVvEoP6+F67xsOtWd7nVg06zmU8d5LVznZVOqwOR3v9ehn3HVvP8Fr7MxCNdhK13ryV6PN7hf9kHKRb9yOixaTud6HbjG1VW9Cx2vs4VrSgeuMY3neh0WrivfrWolXKZwPTM60Kv+VK/D1rj6ypshzgXIxEjo0FAS1jjb6/Vwi9vF60zh+kno4AJ7PtHrsHDd1X67HgbEszDx+Sebj9xyotdB4bqBoonXRlJKK7DH87wOC9cNFE02OLPGlZnNyZThPK+Hu7yFDaZY4yqucXaa10Fr100sXUyss8ZVWOMsqMnYnRbFmli6SD2Y0vfjtCzzvC7T2CveNc329HTmk7wOmgzvmli6SLrQ1XfTp1syTwO1Nc2ii9zlJK9DktNGeiHPdOL1418uyTze3WxNs+hs+CSvgxZ1W+mFdKme3+GL7OnuZps0i679xnO8Dqk5m+mFJGqI99PX2eba3VjrzqRZdO13ktfDnd7CaRri3T9fc8/7rpLLwnesNvWneB2yyNXOvG+SL7q2DiZ73FZsWfiOhvg5Xodkpu0sXaRonG1vLXFXsX3vscvr+QSvQx70lpYujhe/ISXkPcXu7Wm2K3Ke4XVIYrrc6SKniUmPOzbPZOHleD3cK1wfnjgL7QzN91vu0gvf+cgt6b0OScObyq6O+vZnTHqu49D3w7g8T+m864Xzeo/X083C9dFPsP/Iwn+bQunH+d6ZuCx8b6k7pfc6IA1vbI7/WIH9+WJM/efJ0kfKjL+2LNxc+FcpYoI3YqTXAWl4a2sXa7Jw/fjPyOinFbB7BWxfZ5bk9XS7cH1sBXvYiPyfxL5Thd37OnP/E5fe6+GG7+EjS8u/t4aWfuMW3aklbo+UAy2dIbXXAbGrvRt2IIz+nob//dp9eg3eJxG3xHXE6z6111NchLr9Stewfe3GZC06xTWvd3q9nZK22OXcH0Z/k/arr9Z/D+l36Ygrro9pltrrgDS8xTu2PxFfApqca0Qj1Mr1LRgze7295NPkBzr7E/E1IBaPt/PaynVhXm/Xf222OXd3xOeAoH87r32cWZrX24Vmmx/eTQm8Hnn946E0Fn7Y60dSr7fL60ZfxbtHU2Z5uJ5Zeq8DPtSM8Xq7vG512mBvIh5SX0/38lrPrDivx5jnuCn2zogvAc239fiPqWnOTM+sOK83y+tmOyJ7P8kYt6/evdavzZmV5/V2ldnu0O/OztnvV3cxb2bOrESvt7PEdlsiOztnvwfjv8f8T/+L1r/70AovsR8+3fltvDOU/v4gr/1Gd7j1tpntR1N5/ZbS682mcN/wpd45c/apMpn6f3eHG0/DrXCV6fXmkz3e+VqHpDB/iv15I6Rn42k4rYv0ejtiNZ1m7QzYn991n4/Y+yMvbXy7FCtcyTLjpF6vcbFJwP7bRXks3f/fD930TNGao3V7ZP3+ertt1vbF3lth//k8z8v4zjI/0nTmaM3rQ16PcSmngB1XVq49rRHmddL9zbpED/DdAnbYom3bWbgxsxiy7ke6PTTR/CzReN5D/exojf8HkFdGrzd/WPufy+/dN2X7sW77mFxaF+z1dju8/Qu+t7XVzaI13pKplvJ8riXBS6T5wmdfjT3TGjGqpTxPc0zwEqn/iu8We/zy6X5MWmYo1+tbfKuzvw7ulr8v9axtH/Ix0Dp9ubcm9Hrzib7Fp7VHjtDq/nOU/dtjHUyZIdbrOaHXmzMw93gxHxri7of19wO71rH1D65pvYdN1RJ6/Ugw29YCR1ek+n4cl3fGsW/+9MzPn6shmddv6bzeXFO7y8GndzrM9qDWPsw8cNk0bwAADG9JREFU5wnL6vVt9o+diE3rU71OEUJDvU6xVn77nvittLaX2U6STIp0qX7YffauenasPTxih/3t8InXp7DKxE2jXJgPLjm9vtP7eSKu9a3L2uFBqoV6PfL6Fw8l9r87ZrQ+UOYlmRThtRJbx6yoKm/z+r7x+rS1CCW2jtlFRd6Q0+v+ZqnXQuwvnjods5Pb4WNWr71WobTO0TZbeK13ljkHV1qf3jYLq3h5TWw5eFVtsyevNcXl4K3Vd2Gm8ZrYcvCC2MwCR15fXwvdJ1jLwTM9UhOvzy+GiP3j9juyPlN5HbiPIK+JrWFWU3n95DWxNcwqY7NlEygar4l9NFgbHM1YXo+ZvZ6JfdPKWrDOWV4veb1+3felPd94uUsbPC3bs04zr7MlT7cV25p1WrYPow79vsp+KcTeHaxHwTp3Gh66nbf9zZK8Z4c7puD6ZanZPoh54nVWsce7dc86kyhXpOFzYq/tH77BvY4L6Ccp+BVpePBysvM+kt2U+4jdj1Lwa9LwMbvXw+3vyl26Zwrry9Lw8EPmnaepyLa2VU0a/kzttfOvg7qLzYvdGS+7MA0PT4qDvd5MMiVnb83PnrH6zDpuOyhM6b0ek6X+cnFW4y/J3nYaPl/gteOOf1RJHauxg+3Zpu4tvddJTuW9Rz7VYshm9ekl3PZTM57g9ZrwZSJk17aytbL6bAIOmlhP8HpzAVtDvNEq+91qd7SErlnMWVnBXj/SnENwm6xqaMRss2WldM2iKt3w7Hkzt9Q4+3yjGkjG+84ceCa6pGl4hNdjytfJLTKr2j8FkYBnbMmkTcMjvE50wMitzK65zBaqcxLwAX9UPhzu9faBYAqx/5bZlZqtA575OQkI1/M5Xs9pDua9XYJVXwOtH4TqzIwB+dPbOV6/9QrsfWZXFbP7bpJ3FRiuI9vSEV4PCuzms3GrWqWG68jxkAivJwX2/g5aDb3xflRUFxuuI/ctifB6TZwq3MzspesLT79JXW64jv1cMsLr7Uk3eyHVWWj3g5q68HDdPU7zOuCsP23UrXS8vO74e/btthUfrmNT4S7pz7fStf1ynrqyArXsu4JwHR0xY7xeXxLxBDzKyMffnRaoawnX0UvIMV5vF9gS8WC1L+2icbqgrktIuJ7P9DrgmxMd8YiE/JJau+/HRe5dECFHu8XnwVFeTxLxtG20vGG7F6bLI2hr6vVcr9cTEgZu53C770ZKF3n7Q7qo3eNcrx+9RPwct6ex788zepkpXXHTbM8yU9xXItu1QK90OyB3wsjdvxfS47IqpctusoTc8D1OxXm9nlEK4LeMaF6XcTgQu991Ht59XmYFUStNs105cJzXAZsm6pwl0XtelvFD8D7M5ffY/J5uv4dnOjfXNNu1eNylfr/onKU2/MPxD8bfWH7w8U+l2tWWXv1Z4TrW64DNy+2uAAQR1DTbN+vVJX/DmDkDQljPC9exXiffNxG4axbenReuo71eXgI2kCsL3xslY71+9gI2cJygXvire+bxOiQRF7CBBAHywI4G0V6vLwEbOMgjaCJlz2T4Tq8fnYANHGQKmx7cPb3ZnfIbCdjAv7LesCx8//BmvNenbMcE3Km4Dtvj7sDsZrzXQbPqhs6Ag8X1EYt2eL2e+6YBGmcM/DbvmdXrkM7Za/AxAnCkuD7UpdrhdcjMma3Egb8zB2rdPTJ7/exfWmfALgJ7ZgdL2T1ehy2+aZ0B/61iA3tmB/3Z5XVYwLYjEvAnoVp3z/xehzX0Opk48EeqG1hc9wf7U/u8Div9ZeLALq0PbxO4z+vAHVxk4sBvhK5wHe867/R67mXiwFlaH14l3ul14MiM6RQgWusEm3Xv9Tpwcd2HXUCUMmny3L1eBwZsJTbwjdB5lDTS7PY6cB8XJTYQpXWSdaTdXgfu+KDEBqK07h6Xev3o8r19gLpr63Ct03zivN/rwI1SX73eGW5OeCc8lS4HvA4dddU7A63zLXEd9jq0cW/zFND6lbXPfMTr0P1cNMVxY6YIrZOFwENeBzf5iA1a55gfTeJ1aOssUe8eqI3HEKF1wrWjY14HfyVuGRt35DlEWJ1SkoNeP3tiA18QsWyduFo96HV4Jk5s3I2YRnjiZaOjXodn4sTGvUrrKU7rpGMeh70Oz8Rfg644lNZZxjIPex2RiVvuwn1y8KjSOvlnFMe9Dp5OITbk4JmK1AReR3yCZlYccvAcvacEXkds8JJyogYoNQePDNYn5LEpvI4blZu0xdF0sB6v1zqN129xUzWKbDQcrCMbZud0ndJ4/Yybq/HdJgTrU3tOabyOKrEV2WiVJTpYn9RKTuR17MjcKBdHc8xDX4jWybwO3Z5ULo5GiV6zPnPhN5nXj8glO31x3D0FP3GeI5nX0WK/BiEbd07BzxzTSud1ZFP8W5UtZKMJq8c9Vp85fdml/Oui/7jOWCmq57nP6lOHqlN6HT8/pzGO6q2e9ll97kdQSb3eIbb+GW5p9cnfNqb1+m3PX9ktzMad6uoM09SJvd4ltjIbNbLut/r0TcFSe71P7H5gNqrisQz7rT5/JSi51/vE/jBbNo5qEvBpv9RZjphN7/Xb7v7gojeOGkL1OhyxOsumQSd4vVvs9/eYETQ0XFXn+zTiDK/3iy0dR+H5d3fQ6kzbipzi9duR6kPQRpnpdwKps81On+P1ngGV3/72jtooi+fh9DvvjiIneX1M7O9qS8hRSqAeUkidc9eBs7yOPErw7ynLImzj6jidyumP5lG+BZ/uvCvSJbgSH26L27hE6XkZu1RO51m1zuF1/KEHX77m3uW2tI2cRk9jn1Dp/Dt/nej122NMd2n6D7uXmd84Ued5eRd6SG30FXuIdKf+v0/Jr1Df990IJOZd5jN0vuxcunO93nH4AdAaff4jbrqzc5vBbcXNtb7gGIyzvU5aZAOCdRley8UhWLfotVwct7X6qn05c3i974QToHau2+Cry/NjZrk4bhesL9xqN5PX2meQgjfo9ccJRu41bmP1xafP5fNalY37FNbL29tdvN576CCgsC7Za2vZuIPVBXyclNlryThY3aDX+08VBVhdrtfKbLC6Ra/fy2xmozW6qaBNP7qLfi6z0VSoHso67bm77CczG81YPZZ2Hmx34c9mNiTg7Xn99jbrjaP2BLzIE+W6i3/+czKpgmqlLjFUF+H18dOEAVV1eV6/fTt91FOC2qQu+SCaroxf47GqtEHq1rz+qLTl46ijpl7LPzKuK+mXeYraKFvqYanjJKmusN8n3VnDQGKnKzqTvSvwd3oP2x23UZDS/TjVdV5zV+jvlfI8ceCA0sO0zm+10RX8uz3m5ZxDS4EQo7uxRqWL9/rH4va6jCO7kTNEj9MyV2p0LV7/P3Z/O3P8+znFLEdakT8YxnFclnefn2/101X5W89AOloQuQmvAfAa4DUAXgPgNQBeA+A1wGsAvAbAawC8BsBrALwGeA2A1wB4DYDXAHgN8BoArwHwGgCvAfAaAK8BXgPgNQBeA+A1AF4DvAbAawC8BsBrALwGeA2A1wB4DYDXAHgNgNcArwHwGgCvAfAaAK8BXgPgNQBeA+A1AF4DvAbAawC8BsBrALwGwGuA1wB4DYDXAHgNgNcArwHwGgCvAfAaAK8B8BrgNQBeA+A1AF4D4DXAawC8BsBrALwGwGuA1wB4DYDXAHgNgNcAeA3wGgCvAfAaAK8B8BrgNQBeA+A1AF4D4DXAawC8BsBrALwGwGsAvAZ4DYDXAHgNgNcAeA3wGgCvAfAaAK8B8BoArwFeA+A1AF4D4DUAXgO8BsBrALwGwGsAvAZ4DYDXAHgNgNcAeA2A1wCvAfAaAK8B8BoArwFeA+A1AF4D4DUAXgO8BsBrALwGwGsAvAbAa4DXAHgNgNcAeA2A1wCvAfAaAK8B8BoArwHwGuA1AF4D4DUAXgPgNcBrALwGwGsAvAbAa4DXAHgNgNcAeA2A1wB4DfAaAK8B8BoArwHwGuA1AF4D4DUAXgPgNcBrALwGwGsAvAbAawC8BngNgNcAeA2A1wB4DfAaAK8B8BoArwHwGgCvAV4D4DUAXgPgNQBeA7wGwGsAvAbAawC8BngNgNcAeA2A1wB4DYDXAK8B8BoArwHwGgCvAV4D4DUAXgPgNQBeA7wGwGsAvAbAawC8BsBrgNcAeA2A1wB4DYDXAK8B8BoArwHwGgCvAfAa4DUAXgPgNQBeA+A1wGsAvAbAawC8BsBrgNcAeA2A1wB4DYDXAHgN8BoArwHwGgCvAfyL/wGmDuYmuQrLQQAAALp6VFh0UmF3IHByb2ZpbGUgdHlwZSBBUFAxAAB4nGVOSQ7DIAy884o8wSvg59AsVaSqrfL/Q1mSiKQjwdiDPYx7zu95W8fhu32W9TW7oQCDd6IhevMeMmSSCYASNMR8FBBT5QZsJCnrj153jZUAqSxyt0C1IuSbXs1i8FYc70ZHih0Sbwn6Xq3V4RhmYHLMDIZ14HzIHZUMRtF3+tTIxvRvhC5fkNpPZ/wl45IPlYXFZI+irKBRxhLN/QArwk5YfC4isAAAAABJRU5ErkJggg==;" parent="1" vertex="1">
          <mxGeometry x="524.8" y="1283.33" width="70.4" height="73.33" as="geometry" />
        </mxCell>
        <mxCell id="5RZObBpU1f4yu_yqTgpw-5" value="" style="ellipse;whiteSpace=wrap;html=1;aspect=fixed;strokeColor=#455964;strokeWidth=3;fillColor=none;container=0;" parent="1" vertex="1">
          <mxGeometry x="520" y="1280" width="80" height="80" as="geometry" />
        </mxCell>
        <mxCell id="5RZObBpU1f4yu_yqTgpw-11" value="" style="group" parent="1" vertex="1" connectable="0">
          <mxGeometry x="-120" y="1280" width="80" height="80" as="geometry" />
        </mxCell>
        <mxCell id="5RZObBpU1f4yu_yqTgpw-9" value="" style="shape=image;verticalLabelPosition=bottom;labelBackgroundColor=default;verticalAlign=top;aspect=fixed;imageAspect=0;image=https://seeklogo.com/images/S/sonarcloud-logo-39208B5388-seeklogo.com.png;" parent="5RZObBpU1f4yu_yqTgpw-11" vertex="1">
          <mxGeometry x="9.050000000000011" y="11.839999999999918" width="61.9" height="56.33" as="geometry" />
        </mxCell>
        <mxCell id="5RZObBpU1f4yu_yqTgpw-10" value="" style="ellipse;whiteSpace=wrap;html=1;aspect=fixed;strokeColor=#455964;strokeWidth=3;fillColor=none;container=0;" parent="5RZObBpU1f4yu_yqTgpw-11" vertex="1">
          <mxGeometry width="80" height="80" as="geometry" />
        </mxCell>
        <mxCell id="5RZObBpU1f4yu_yqTgpw-14" value="" style="shape=image;verticalLabelPosition=bottom;labelBackgroundColor=default;verticalAlign=top;aspect=fixed;imageAspect=0;image=https://cdn.hashnode.com/res/hashnode/image/upload/v1596846086566/wQLRLqj1i.png?w=1600&amp;h=840&amp;fit=crop&amp;crop=entropy&amp;auto=compress,format&amp;format=webp;" parent="1" vertex="1">
          <mxGeometry x="483.8" y="480" width="152.4" height="80.01" as="geometry" />
        </mxCell>
        <mxCell id="gLOYdz-wZE3fm8D_gQHH-12" style="edgeStyle=orthogonalEdgeStyle;rounded=0;orthogonalLoop=1;jettySize=auto;html=1;exitX=1;exitY=0.5;exitDx=0;exitDy=0;strokeColor=#455964;strokeWidth=3;curved=1;" edge="1" parent="1" source="gLOYdz-wZE3fm8D_gQHH-11" target="avbdHqin9oMnhoK1nbsH-7">
          <mxGeometry relative="1" as="geometry" />
        </mxCell>
        <mxCell id="gLOYdz-wZE3fm8D_gQHH-11" value="&lt;font face=&quot;Ubuntu&quot; color=&quot;#ffffff&quot;&gt;&lt;b&gt;Package&lt;br&gt;for&lt;br&gt;WAR&lt;br&gt;&lt;/b&gt;&lt;/font&gt;" style="ellipse;whiteSpace=wrap;html=1;aspect=fixed;strokeColor=none;strokeWidth=3;fillColor=#2184F7;" vertex="1" parent="1">
          <mxGeometry x="520" y="880.01" width="80" height="80" as="geometry" />
        </mxCell>
      </root>
    </mxGraphModel>
  </diagram>
</mxfile>
